<svg width="20" height="20" viewBox="0 0 20 20" fill="none" xmlns="http://www.w3.org/2000/svg">
<path fill-rule="evenodd" clip-rule="evenodd" d="M9.57002 1.7855C9.83393 1.62716 10.1636 1.62716 10.4275 1.7855L18.7609 6.7855C19.082 6.97822 19.2352 7.36155 19.1352 7.72253C19.0352 8.0835 18.7067 8.33342 18.3321 8.33342H17.0821V16.6667H18.3321C18.7923 16.6667 19.1654 17.0398 19.1654 17.5001C19.1654 17.9603 18.7923 18.3334 18.3321 18.3334H1.66544C1.2052 18.3334 0.832104 17.9603 0.832104 17.5001C0.832104 17.0398 1.2052 16.6667 1.66544 16.6667H2.91544V8.33342H1.66544C1.29087 8.33342 0.962326 8.0835 0.862342 7.72253C0.762357 7.36155 0.915502 6.97822 1.23669 6.7855L9.57002 1.7855ZM4.5821 8.33342V16.6667H7.0821V8.33342H4.5821ZM8.74877 8.33342V16.6667H11.2488V8.33342H8.74877ZM4.67404 6.66675L9.99877 3.47191L15.3235 6.66675H4.67404ZM12.9154 8.33342V16.6667H15.4154V8.33342H12.9154Z" fill="white"/>
</svg>
