<svg width="15" height="14" viewBox="0 0 15 14" fill="none" xmlns="http://www.w3.org/2000/svg">
<path fill-rule="evenodd" clip-rule="evenodd" d="M4.8737 1.75016C4.71261 1.75016 4.58203 1.88074 4.58203 2.04183V2.91683H10.1237C10.9291 2.91683 11.582 3.56975 11.582 4.37516V9.91683H12.457C12.6181 9.91683 12.7487 9.78626 12.7487 9.62516V2.04183C12.7487 1.88074 12.6181 1.75016 12.457 1.75016H4.8737ZM11.582 11.0835H12.457C13.2625 11.0835 13.9154 10.4306 13.9154 9.62516V2.04183C13.9154 1.23642 13.2625 0.583496 12.457 0.583496H4.8737C4.06826 0.583496 3.41536 1.23642 3.41536 2.04183V2.91683H2.54036C1.73495 2.91683 1.08203 3.56975 1.08203 4.37516V11.9585C1.08203 12.7639 1.73495 13.4168 2.54036 13.4168H10.1237C10.9291 13.4168 11.582 12.7639 11.582 11.9585V11.0835ZM2.54036 4.0835C2.37928 4.0835 2.2487 4.21408 2.2487 4.37516V11.9585C2.2487 12.1196 2.37928 12.2502 2.54036 12.2502H10.1237C10.2848 12.2502 10.4154 12.1196 10.4154 11.9585V4.37516C10.4154 4.21408 10.2848 4.0835 10.1237 4.0835H2.54036Z" fill="#516277"/>
</svg>
