<svg width="24" height="24" viewBox="0 0 24 24" fill="none" xmlns="http://www.w3.org/2000/svg">
<path fill-rule="evenodd" clip-rule="evenodd" d="M1 5.00012C1 3.89555 1.89543 3.00012 3 3.00012H21C22.1046 3.00012 23 3.89556 23 5.00012V19.0001C23 20.1047 22.1046 21.0001 21 21.0001H3C1.89544 21.0001 1 20.1047 1 19.0001V5.00012ZM3 9.00012V19.0001H21V9.00012H3ZM21 7.00012H3V5.00012H21V7.00012ZM12.5 16.0001C12.5 15.4478 12.9477 15.0001 13.5 15.0001H18C18.5523 15.0001 19 15.4478 19 16.0001C19 16.5524 18.5523 17.0001 18 17.0001H13.5C12.9477 17.0001 12.5 16.5524 12.5 16.0001Z" fill="white"/>
</svg>
