<svg width="14" height="14" viewBox="0 0 14 14" fill="none" xmlns="http://www.w3.org/2000/svg">
<path fill-rule="evenodd" clip-rule="evenodd" d="M0.527293 0.528606C0.787643 0.268256 1.20975 0.268256 1.4701 0.528606L4.4701 3.52861C4.73045 3.78896 4.73045 4.21107 4.4701 4.47141C4.20975 4.73176 3.78764 4.73176 3.52729 4.47141L0.527293 1.47141C0.266944 1.21107 0.266944 0.788955 0.527293 0.528606ZM13.4701 0.528606C13.7305 0.788955 13.7305 1.21107 13.4701 1.47141L10.4701 4.47141C10.2098 4.73176 9.78764 4.73176 9.52729 4.47141C9.26694 4.21107 9.26694 3.78896 9.52729 3.52861L12.5273 0.528606C12.7876 0.268256 13.2098 0.268256 13.4701 0.528606ZM6.9987 6.00001C6.44641 6.00001 5.9987 6.44773 5.9987 7.00001C5.9987 7.5523 6.44641 8.00001 6.9987 8.00001C7.55098 8.00001 7.9987 7.5523 7.9987 7.00001C7.9987 6.44773 7.55098 6.00001 6.9987 6.00001ZM4.66536 7.00001C4.66536 5.71135 5.71003 4.66668 6.9987 4.66668C8.28736 4.66668 9.33203 5.71135 9.33203 7.00001C9.33203 8.28867 8.28736 9.33334 6.9987 9.33334C5.71003 9.33334 4.66536 8.28867 4.66536 7.00001ZM4.4701 9.52861C4.73045 9.78896 4.73045 10.2111 4.4701 10.4714L1.4701 13.4714C1.20975 13.7318 0.787643 13.7318 0.527293 13.4714C0.266944 13.2111 0.266944 12.789 0.527293 12.5286L3.52729 9.52861C3.78764 9.26826 4.20975 9.26826 4.4701 9.52861ZM9.52729 9.52861C9.78764 9.26826 10.2098 9.26826 10.4701 9.52861L13.4701 12.5286C13.7305 12.789 13.7305 13.2111 13.4701 13.4714C13.2098 13.7318 12.7876 13.7318 12.5273 13.4714L9.52729 10.4714C9.26694 10.2111 9.26694 9.78896 9.52729 9.52861Z" fill="#4067F9"/>
</svg>
