<svg width="19" height="22" viewBox="0 0 19 22" fill="none" xmlns="http://www.w3.org/2000/svg">
<path d="M5.5 13C4.94772 13 4.5 13.4477 4.5 14C4.5 14.5523 4.94772 15 5.5 15H12.5C13.0523 15 13.5 14.5523 13.5 14C13.5 13.4477 13.0523 13 12.5 13H5.5Z" fill="#4769F9"/>
<path d="M4.5 17C4.5 16.4477 4.94772 16 5.5 16H9C9.55228 16 10 16.4477 10 17C10 17.5523 9.55228 18 9 18H5.5C4.94772 18 4.5 17.5523 4.5 17Z" fill="#4769F9"/>
<path fill-rule="evenodd" clip-rule="evenodd" d="M5.5 4C4.94772 4 4.5 4.44772 4.5 5V10C4.5 10.5523 4.94772 11 5.5 11H12.5C13.0523 11 13.5 10.5523 13.5 10V5C13.5 4.44772 13.0523 4 12.5 4H5.5ZM6.5 9V6H11.5V9H6.5Z" fill="#4769F9"/>
<path fill-rule="evenodd" clip-rule="evenodd" d="M2.5 0C1.39543 0 0.5 0.89543 0.5 2V20C0.5 21.1046 1.39544 22 2.5 22H16.5C17.6046 22 18.5 21.1046 18.5 20V2C18.5 0.89544 17.6046 0 16.5 0H2.5ZM2.5 2H16.5V20H2.5V2Z" fill="#4769F9"/>
</svg>
