<svg width="14" height="14" viewBox="0 0 14 14" fill="none" xmlns="http://www.w3.org/2000/svg">
<path fill-rule="evenodd" clip-rule="evenodd" d="M7 0.875C7.20816 0.875 7.40054 0.985919 7.50483 1.16606L13.9215 12.2494C14.026 12.4299 14.0262 12.6524 13.922 12.833C13.8179 13.0137 13.6252 13.125 13.4167 13.125H0.583333C0.374804 13.125 0.182134 13.0137 0.0779774 12.833C-0.0261793 12.6524 -0.0259796 12.4299 0.0785013 12.2494L6.49517 1.16606C6.59946 0.985919 6.79184 0.875 7 0.875ZM1.59509 11.9583H12.4049L7 2.62259L1.59509 11.9583ZM6.99952 4.95849C7.32168 4.95822 7.58307 5.21917 7.58333 5.54133L7.58575 8.45786C7.58602 8.78002 7.32507 9.0414 7.0029 9.04167C6.68074 9.04194 6.41935 8.78099 6.41909 8.45882L6.41667 5.5423C6.4164 5.22014 6.67735 4.95875 6.99952 4.95849ZM7 9.62501C7.32217 9.62501 7.58333 9.88617 7.58333 10.2083V10.5C7.58333 10.8222 7.32217 11.0833 7 11.0833C6.67783 11.0833 6.41667 10.8222 6.41667 10.5V10.2083C6.41667 9.88617 6.67783 9.62501 7 9.62501Z" fill="black" fill-opacity="0.85"/>
</svg>
