<svg width="22" height="18" viewBox="0 0 22 18" fill="none" xmlns="http://www.w3.org/2000/svg">
<path fill-rule="evenodd" clip-rule="evenodd" d="M4.70711 0.292893C5.09763 0.683417 5.09763 1.31658 4.70711 1.70711L3.41421 3H21C21.5523 3 22 3.44772 22 4C22 4.55228 21.5523 5 21 5H3.41421L4.70711 6.29289C5.09763 6.68342 5.09763 7.31658 4.70711 7.70711C4.31658 8.09763 3.68342 8.09763 3.29289 7.70711L0.292893 4.70711C-0.0976311 4.31658 -0.0976311 3.68342 0.292893 3.29289L3.29289 0.292893C3.68342 -0.0976311 4.31658 -0.0976311 4.70711 0.292893ZM17.2929 10.2929C17.6834 9.90237 18.3166 9.90237 18.7071 10.2929L21.7071 13.2929C22.0976 13.6834 22.0976 14.3166 21.7071 14.7071L18.7071 17.7071C18.3166 18.0976 17.6834 18.0976 17.2929 17.7071C16.9024 17.3166 16.9024 16.6834 17.2929 16.2929L18.5858 15H1C0.447715 15 1.49012e-08 14.5523 1.49012e-08 14C1.49012e-08 13.4477 0.447715 13 1 13H18.5858L17.2929 11.7071C16.9024 11.3166 16.9024 10.6834 17.2929 10.2929Z" fill="#4769F9"/>
</svg>
