<svg width="14" height="14" viewBox="0 0 14 14" fill="none" xmlns="http://www.w3.org/2000/svg">
<path fill-rule="evenodd" clip-rule="evenodd" d="M2.00016 1.66659C1.81607 1.66659 1.66683 1.81582 1.66683 1.99992V11.9999C1.66683 12.184 1.81607 12.3333 2.00016 12.3333H12.0002C12.1843 12.3333 12.3335 12.184 12.3335 11.9999V1.99992C12.3335 1.81582 12.1843 1.66659 12.0002 1.66659H2.00016ZM0.333496 1.99992C0.333496 1.07944 1.07969 0.333252 2.00016 0.333252H12.0002C12.9206 0.333252 13.6668 1.07944 13.6668 1.99992V11.9999C13.6668 12.9204 12.9206 13.6666 12.0002 13.6666H2.00016C1.07969 13.6666 0.333496 12.9204 0.333496 11.9999V1.99992ZM7.00016 3.66659C7.36835 3.66659 7.66683 3.96506 7.66683 4.33325V6.33325H9.66683C10.035 6.33325 10.3335 6.63173 10.3335 6.99992C10.3335 7.36811 10.035 7.66659 9.66683 7.66659H7.66683V9.66659C7.66683 10.0348 7.36835 10.3333 7.00016 10.3333C6.63197 10.3333 6.3335 10.0348 6.3335 9.66659V7.66659H4.3335C3.96531 7.66659 3.66683 7.36811 3.66683 6.99992C3.66683 6.63173 3.96531 6.33325 4.3335 6.33325H6.3335V4.33325C6.3335 3.96506 6.63197 3.66659 7.00016 3.66659Z" fill="#4769F9"/>
</svg>
