<svg width="20" height="20" viewBox="0 0 20 20" fill="none" xmlns="http://www.w3.org/2000/svg">
<path d="M6.66536 7.76046C6.66536 5.91951 8.15775 4.42712 9.9987 4.42712C11.8396 4.42712 13.332 5.91951 13.332 7.76046C13.332 9.31365 12.2697 10.6187 10.832 10.9888V11.9271C10.832 12.3874 10.4589 12.7605 9.9987 12.7605C9.53846 12.7605 9.16536 12.3874 9.16536 11.9271V10.2605C9.16536 9.80022 9.53846 9.42712 9.9987 9.42712C10.9192 9.42712 11.6654 8.68093 11.6654 7.76046C11.6654 6.83999 10.9192 6.09379 9.9987 6.09379C9.07823 6.09379 8.33203 6.83999 8.33203 7.76046C8.33203 8.22069 7.95893 8.59379 7.4987 8.59379C7.03846 8.59379 6.66536 8.22069 6.66536 7.76046Z" fill="#4769F9"/>
<path d="M11.0404 14.6355C11.0404 15.2107 10.574 15.6771 9.9987 15.6771C9.42341 15.6771 8.95703 15.2107 8.95703 14.6355C8.95703 14.0602 9.42341 13.5938 9.9987 13.5938C10.574 13.5938 11.0404 14.0602 11.0404 14.6355Z" fill="#4769F9"/>
<path fill-rule="evenodd" clip-rule="evenodd" d="M3.51689 3.51822C5.17483 1.8603 7.46764 0.833374 9.9987 0.833374C12.5298 0.833374 14.8226 1.8603 16.4805 3.51822C18.1384 5.17617 19.1654 7.46898 19.1654 10C19.1654 12.5311 18.1384 14.8239 16.4805 16.4818C14.8226 18.1398 12.5298 19.1667 9.9987 19.1667C7.46764 19.1667 5.17483 18.1398 3.51689 16.4818C1.85897 14.8239 0.832031 12.5311 0.832031 10C0.832031 7.46898 1.85897 5.17617 3.51689 3.51822ZM9.9987 2.50004C7.92742 2.50004 6.05356 3.33859 4.69539 4.69674C3.33724 6.05491 2.4987 7.92876 2.4987 10C2.4987 12.0713 3.33725 13.9452 4.6954 15.3033C6.05356 16.6615 7.92742 17.5 9.9987 17.5C12.07 17.5 13.9438 16.6615 15.302 15.3033C16.6601 13.9452 17.4987 12.0713 17.4987 10C17.4987 7.92877 16.6601 6.05491 15.302 4.69674C13.9438 3.33859 12.07 2.50004 9.9987 2.50004Z" fill="#4769F9"/>
</svg>
