<svg width="25" height="26" viewBox="0 0 25 26" fill="none" xmlns="http://www.w3.org/2000/svg">
<path fill-rule="evenodd" clip-rule="evenodd" d="M2.48884 3.08591L3.72189 11.5939H11.33C11.9772 11.5939 12.5019 12.2235 12.5019 13.0001C12.5019 13.7768 11.9772 14.4064 11.33 14.4064H3.72189L2.48884 22.9143L21.7665 13.0001L2.48884 3.08591ZM1.54676 13.0001L0.101331 3.0267C-0.0155204 2.22043 0.201889 1.39635 0.684121 0.817664C1.29004 0.0905766 2.20381 -0.120605 2.99142 0.284452L23.9326 11.0542C24.5812 11.3878 25.0018 12.1532 25.0018 13.0001C25.0018 13.847 24.5812 14.6125 23.9326 14.9461L2.99142 25.7158C2.20381 26.1209 1.29004 25.9096 0.684121 25.1827C0.201889 24.6039 -0.0155207 23.7798 0.101331 22.9736L1.54676 13.0001Z" fill="#4067F9"/>
</svg>
