<svg width="16" height="17" viewBox="0 0 16 17" fill="none" xmlns="http://www.w3.org/2000/svg">
<path fill-rule="evenodd" clip-rule="evenodd" d="M7.58228 0.844386C7.831 0.662955 8.16844 0.662955 8.41716 0.844386L10.0906 2.06505L12.1618 2.06111C12.4697 2.06052 12.7427 2.25886 12.8373 2.55184L13.4736 4.52299L15.1516 5.73728C15.401 5.91776 15.5053 6.23868 15.4096 6.53129L14.7658 8.49998L15.4096 10.4687C15.5053 10.7613 15.401 11.0822 15.1516 11.2627L13.4736 12.477L12.8373 14.4481C12.7427 14.7411 12.4697 14.9394 12.1619 14.9388L10.0906 14.9349L8.41716 16.1556C8.16844 16.337 7.83101 16.337 7.58228 16.1556L5.90888 14.9349L3.83758 14.9388C3.52972 14.9394 3.25674 14.7411 3.16216 14.4481L2.52584 12.477L0.847814 11.2627C0.598403 11.0822 0.49413 10.7613 0.589823 10.4687L1.23364 8.49998L0.589823 6.53129C0.49413 6.23868 0.598403 5.91776 0.847814 5.73728L2.52584 4.52299L3.16216 2.55184C3.25674 2.25886 3.52973 2.06052 3.83759 2.06111L5.90888 2.06505L7.58228 0.844386ZM11.3339 7.23001C11.6105 6.95339 11.6105 6.5049 11.3339 6.22828C11.0573 5.95166 10.6088 5.95166 10.3322 6.22828L7.29138 9.26908L6.02141 7.99911C5.74479 7.72249 5.2963 7.72249 5.01968 7.99911C4.74305 8.27573 4.74305 8.72423 5.01968 9.00085L6.79051 10.7717C7.06713 11.0483 7.51562 11.0483 7.79224 10.7717L11.3339 7.23001Z" fill="#10783E"/>
</svg>
