<svg width="23" height="24" viewBox="0 0 23 24" fill="none" xmlns="http://www.w3.org/2000/svg">
<path fill-rule="evenodd" clip-rule="evenodd" d="M10.8855 0.741863C11.2512 0.475053 11.7475 0.475053 12.1132 0.741863L14.5741 2.53696L17.6201 2.53116C18.0729 2.5303 18.4743 2.82198 18.6134 3.25282L19.5492 6.15158L22.0169 7.93729C22.3836 8.20271 22.537 8.67465 22.3962 9.10496L21.4495 12.0001L22.3962 14.8952C22.537 15.3255 22.3836 15.7975 22.0169 16.0629L19.5492 17.8486L18.6134 20.7473C18.4743 21.1782 18.0729 21.4699 17.6201 21.469L14.5741 21.4632L12.1132 23.2583C11.7475 23.5251 11.2512 23.5251 10.8855 23.2583L8.42459 21.4632L5.37857 21.469C4.92584 21.4699 4.52439 21.1782 4.3853 20.7473L3.44954 17.8486L0.98185 16.0629C0.615069 15.7975 0.461727 15.3255 0.602451 14.8952L1.54924 12.0001L0.602451 9.10496C0.461727 8.67465 0.615069 8.20271 0.981849 7.93729L3.44954 6.15158L4.3853 3.25282C4.52439 2.82198 4.92584 2.5303 5.37858 2.53116L8.4246 2.53696L10.8855 0.741863ZM16.4026 10.1325C16.8094 9.7257 16.8094 9.06615 16.4026 8.65935C15.9958 8.25256 15.3362 8.25256 14.9294 8.65935L10.4577 13.1311L8.59008 11.2635C8.18328 10.8567 7.52374 10.8567 7.11694 11.2635C6.71014 11.6703 6.71014 12.3299 7.11694 12.7367L9.72111 15.3408C10.1279 15.7476 10.7875 15.7476 11.1942 15.3408L16.4026 10.1325Z" fill="#4769F9"/>
</svg>
