<svg width="220" height="220" viewBox="0 0 220 220" fill="none" xmlns="http://www.w3.org/2000/svg">
<path d="M135.177 24.3887H31.6382V91.51H135.177V24.3887Z" fill="#C8F5FC"/>
<path d="M125.352 34.4941H67.4951V42.4371H125.352V34.4941Z" fill="#A2E9FC"/>
<path d="M80.2834 70.7793H67.6548V83.4079H80.2834V70.7793Z" fill="#A2E9FC"/>
<path d="M98.7463 70.7793H86.1177V83.4079H98.7463V70.7793Z" fill="#A2E9FC"/>
<path d="M125.325 53.5156H67.4951V55.1309H125.325V53.5156Z" fill="#A2E9FC"/>
<path d="M125.325 57.9756H67.4951V59.5909H125.325V57.9756Z" fill="#A2E9FC"/>
<path d="M92.125 62.4473H67.4951V64.0626H92.125V62.4473Z" fill="#A2E9FC"/>
<path d="M125.325 53.5156H67.4951V55.1309H125.325V53.5156Z" fill="#A2E9FC"/>
<path d="M125.325 57.9756H67.4951V59.5909H125.325V57.9756Z" fill="#A2E9FC"/>
<path d="M92.125 62.4473H67.4951V64.0626H92.125V62.4473Z" fill="#A2E9FC"/>
<path d="M125.325 48.9648H67.4951V50.5801H125.325V48.9648Z" fill="#A2E9FC"/>
<path fill-rule="evenodd" clip-rule="evenodd" d="M4.93946 52.3704C15.045 51.3692 25.738 50.6216 37.6191 50.7685C43.2792 50.8352 48.7258 51.0755 53.9589 51.4359V111.709C45.8157 111.082 36.0171 111.228 25.1907 113.284C21.5196 113.978 18.0887 114.833 14.8982 115.767C14.8982 97.3048 14.8982 77.8546 14.8982 59.3922C11.4407 59.1252 8.26349 58.9517 4.95281 58.2442C0.240438 57.3364 -3.05689 53.6119 4.93946 52.3704Z" fill="#A2E9FC"/>
<path fill-rule="evenodd" clip-rule="evenodd" d="M16.1527 119.171L16.086 118.918C21.1988 117.556 26.3918 116.582 31.4913 116.008C37.1381 115.38 41.9974 115.313 48.7122 115.22C51.6224 115.18 54.5593 115.18 57.4561 115.22V55.5076C44.3068 54.2127 31.0107 54.0391 17.9416 54.987C14.2971 55.2539 10.6127 55.601 6.99496 56.0416L6.96826 55.7746C10.5993 55.334 14.2838 54.987 17.9282 54.72C31.0508 53.7721 44.4003 53.9457 57.6029 55.2539L57.7231 55.2673V115.5H57.5896C54.666 115.46 51.6758 115.46 48.7255 115.5C42.0107 115.594 37.1648 115.66 31.518 116.288C26.4185 116.849 21.2522 117.823 16.1527 119.171Z" fill="#0A9CE5"/>
<path fill-rule="evenodd" clip-rule="evenodd" d="M47.2979 91.4854C28.8622 91.6455 8.49083 94.1953 1.94957 95.4235L1.13525 95.5436L1.46899 96.7184L2.28331 96.5982C8.62433 95.3968 29.009 92.8871 47.2979 92.6868V91.4854Z" fill="#81DCFC"/>
<path fill-rule="evenodd" clip-rule="evenodd" d="M47.2978 95.2754C26.9399 95.4089 9.73234 98.6528 3.04423 99.6407C2.64375 99.6941 2.26996 99.7608 1.94957 99.8009L1.13525 99.921L1.46899 101.096L2.28331 100.976C2.61705 100.922 2.97749 100.869 3.39132 100.815C10.0394 99.8409 29.543 96.7839 47.3112 96.4768V95.2754H47.2978Z" fill="#81DCFC"/>
<path fill-rule="evenodd" clip-rule="evenodd" d="M47.1777 99.0674C26.8731 99.0674 4.64617 103.406 1.94957 103.806L1.13525 103.927L1.46899 105.101L2.28331 104.981C4.96656 104.594 27.7675 100.402 47.1777 100.269V99.0674Z" fill="#81DCFC"/>
<path fill-rule="evenodd" clip-rule="evenodd" d="M36.7108 103.151C26.0312 103.846 13.416 105.808 1.86864 108.558L1.24121 108.705L1.5616 109.866L2.18903 109.973C13.6296 107.236 28.1672 104.954 36.6842 104.513L36.7108 103.151Z" fill="#81DCFC"/>
<path fill-rule="evenodd" clip-rule="evenodd" d="M14.8447 123.11V54.7207H0V115.848C0 123.177 8.98422 123.11 14.8447 123.11Z" fill="#C8F5FC"/>
<path fill-rule="evenodd" clip-rule="evenodd" d="M32.7195 63.6638C32.1188 63.2233 31.5447 62.9163 31.0108 62.7027C30.7705 62.5959 30.5168 62.8095 30.5035 63.1165C30.4634 65.4527 28.8882 67.3349 27.0593 67.4417C25.2304 67.3883 23.5751 65.5728 23.4549 63.2366C23.4416 62.9296 23.1746 62.7294 22.9343 62.8362C22.4137 63.0764 21.853 63.3968 21.2656 63.8507C19.0496 65.6129 18.1685 68.176 17.8481 69.284C18.1418 69.6845 18.5423 70.1517 19.0629 70.6056C19.7037 71.1529 20.3178 71.5133 20.8251 71.7536C21.0654 71.8604 21.2523 72.1141 21.3057 72.4077L21.9197 75.4915C22.0532 76.1456 22.0532 76.8131 21.9331 77.4539C21.3991 80.324 20.7183 83.6213 20.1843 86.4915C24.8833 85.9575 29.7159 85.8774 34.5617 85.8107C33.9076 82.9672 33.2535 80.1104 32.5994 77.267C32.4525 76.6262 32.4258 75.9587 32.5326 75.3046L33.0132 72.1942C33.0666 71.9005 33.2268 71.6468 33.4671 71.5267C33.9743 71.273 34.5751 70.8993 35.1892 70.3252C35.6831 69.858 36.0702 69.3774 36.3506 68.9636C35.9901 67.8689 35.0156 65.3459 32.7195 63.6638Z" fill="#81DCFC"/>
<path d="M114.031 195.035C160.627 195.035 198.4 192.668 198.4 189.748C198.4 186.829 160.627 184.462 114.031 184.462C67.4353 184.462 29.6621 186.829 29.6621 189.748C29.6621 192.668 67.4353 195.035 114.031 195.035Z" fill="#ADB6C4"/>
<path d="M159.553 190.697C173.583 190.697 184.957 189.758 184.957 188.601C184.957 187.443 173.583 186.505 159.553 186.505C145.523 186.505 134.149 187.443 134.149 188.601C134.149 189.758 145.523 190.697 159.553 190.697Z" fill="#353437"/>
<path d="M75.771 191.991C86.1223 191.991 94.5137 191.052 94.5137 189.895C94.5137 188.737 86.1223 187.799 75.771 187.799C65.4197 187.799 57.0283 188.737 57.0283 189.895C57.0283 191.052 65.4197 191.991 75.771 191.991Z" fill="#353437"/>
<path d="M139.343 143.841C139.343 143.841 137.66 154.667 135.671 159.767C136.112 160.474 137.033 160.474 137.741 160.181C140.29 154.854 140.344 146.417 140.344 146.417L139.343 143.841Z" fill="#35489E"/>
<path d="M140.237 145.496C140.184 152.424 138.034 158.725 137.046 161.449C137.901 162.717 143.775 158.018 143.694 153.84C143.654 151.53 143.08 147.272 140.237 145.496Z" fill="#262F69"/>
<path d="M144.162 178.163C150.196 186.747 155.816 182.542 160.435 186.573C161.382 185.011 162.25 183.142 162.838 180.98C165.548 170.968 160.141 162.077 158.579 159.674C156.537 166.856 146.204 170.981 144.162 178.163Z" fill="#262F69"/>
<path d="M138.461 157.164H138.448C138.408 157.15 138.394 157.11 138.408 157.083C139.049 154.827 139.529 152.518 139.823 150.208C139.956 149.14 140.063 148.059 140.117 146.978C140.117 146.938 140.143 146.911 140.183 146.911C140.223 146.911 140.25 146.951 140.25 146.978C140.183 148.059 140.09 149.154 139.956 150.222C139.663 152.545 139.182 154.854 138.528 157.11C138.515 157.137 138.488 157.164 138.461 157.164Z" fill="#828282" fill-opacity="0.3"/>
<path d="M76.3593 175.024C75.8653 175.585 75.278 176.186 74.5838 176.8C73.903 177.401 73.2355 177.895 72.6348 178.308C72.8083 178.949 73.2221 180.151 74.3168 181.058C75.5316 182.06 76.8933 182.153 78.2282 182.206C81.0183 182.34 83.3945 181.566 85.0632 180.791C85.4236 180.137 85.7707 179.483 86.1311 178.842C82.8738 177.574 79.6166 176.306 76.3593 175.024Z" fill="#F7B2B2"/>
<path d="M49.2326 170.019C48.1246 170.659 47.4171 171.113 46.9765 171.407C46.8697 171.474 46.6428 171.634 46.3224 171.807C45.7884 172.114 45.3212 172.315 45.0142 172.448C45.0676 172.929 45.1877 173.663 45.5481 174.477C46.5761 176.787 48.6185 177.815 49.1792 178.068C50.4875 178.669 51.7156 178.776 52.5166 178.762C52.9037 178.389 53.3443 178.002 53.8248 177.601C54.2787 177.241 54.7193 176.907 55.1331 176.613C53.1574 174.424 51.195 172.221 49.2326 170.019Z" fill="#F7B2B2"/>
<path fill-rule="evenodd" clip-rule="evenodd" d="M137.834 189.589C125.499 188.694 113.991 174.157 111.428 170.993C107.957 166.721 102.351 160.927 93.0059 154.466C92.1782 153.892 91.0702 153.905 90.2559 154.506C88.8409 155.547 87.0253 156.882 84.9161 158.471C82.046 160.634 81.3652 161.181 79.563 162.516C75.6249 165.399 73.6625 166.854 71.3931 168.123C66.7474 170.739 65.3457 170.405 60.6868 173.075C58.0169 174.611 56.0144 176.132 54.7996 177.12C53.5448 176.239 51.9695 174.931 50.5144 173.075C49.7135 172.061 49.1127 171.086 48.6455 170.205C52.3166 167.589 56.0812 164.759 59.8858 161.728C66.1334 156.762 81.9792 143.333 84.5156 141.517C86.0241 140.396 87.3457 140.009 89.6018 139.822C92.4452 139.581 94.6346 140.516 96.2899 141.25C101.389 143.52 105.968 145.562 108.745 147.511C115.139 152.01 127.421 167.709 137.834 189.589Z" fill="#027BC6"/>
<path d="M129.663 186.038C127.954 184.676 126.86 183.394 126.019 182.393C119.691 174.197 116.754 166.707 115.833 164.545C114.458 161.301 114.031 159.792 112.335 156.135C111.401 154.106 110.066 151.422 109.318 150.101C109.238 149.967 108.838 149.246 108.317 148.272C108.01 147.698 107.77 147.217 107.61 146.91C107.556 147.404 107.49 147.898 107.436 148.392C107.249 152.45 105.848 151.916 105.073 152.277C105.367 153.171 105.073 154.76 103.431 155.387C102.897 156.388 101.282 159.312 100.748 160.326C101.803 161.221 103.525 162.729 105.42 164.652C108.197 167.442 109.025 168.71 112.789 172.915C115.352 175.772 116.647 177.214 118.65 179.136C121.226 181.606 123.215 183.501 126.192 185.357C128.101 186.545 130.998 188.067 134.896 189.175C133.561 188.574 131.652 187.626 129.663 186.038Z" fill="#828282" fill-opacity="0.3"/>
<path fill-rule="evenodd" clip-rule="evenodd" d="M48.6318 170.219C52.3029 167.603 56.0675 164.773 59.8721 161.742C66.1197 156.776 81.9655 143.347 84.502 141.531C85.9704 140.41 87.332 140.023 89.5881 139.836C82.6998 148.66 54.7326 167.576 48.6318 170.219Z" fill="#0A9CE5"/>
<path fill-rule="evenodd" clip-rule="evenodd" d="M54.6924 177.067C54.9327 177.2 55.6802 177.588 56.6414 177.427C57.923 177.214 58.5637 176.213 58.6839 176.012C59.031 175.438 59.1111 174.891 59.1244 174.597C59.565 174.637 60.2725 174.651 61.0734 174.424C61.3538 174.344 62.4484 174.01 63.4764 173.009C64.3441 172.141 64.7312 171.207 64.8914 170.699C64.0771 170.633 60.5929 170.446 57.6159 172.915C55.8404 174.384 55.0261 176.146 54.6924 177.067Z" fill="#027BC6"/>
<path d="M52.1562 171.861C52.1295 171.861 52.1028 171.847 52.0895 171.821C52.0761 171.781 52.0895 171.754 52.1295 171.74C57.0288 169.791 63.2096 166.054 70.5118 160.634C76.2921 156.335 81.5385 151.89 84.5154 149.153C87.2788 146.27 90.0154 146.136 91.3237 146.069C91.5239 146.056 91.7108 146.056 91.831 146.029C91.871 146.029 91.8977 146.056 91.9111 146.083C91.9111 146.123 91.8844 146.149 91.8577 146.163C91.7242 146.176 91.5506 146.189 91.337 146.203C90.0421 146.27 87.3455 146.403 84.6222 149.247C81.6453 151.983 76.3989 156.442 70.6052 160.74C63.2897 166.174 57.0955 169.912 52.1829 171.861C52.1829 171.847 52.1696 171.861 52.1562 171.861Z" fill="#828282" fill-opacity="0.3"/>
<path d="M110.907 159.712C110.894 159.712 110.867 159.712 110.854 159.699C109.426 158.271 108.077 157.056 107.089 156.175C106.435 155.587 105.915 155.12 105.634 154.826C105.608 154.8 105.608 154.76 105.634 154.733C105.661 154.706 105.701 154.706 105.728 154.733C106.008 155.027 106.515 155.48 107.169 156.068C108.157 156.949 109.506 158.164 110.934 159.592C110.961 159.619 110.961 159.659 110.934 159.686C110.947 159.712 110.921 159.712 110.907 159.712Z" fill="#828282" fill-opacity="0.3"/>
<path fill-rule="evenodd" clip-rule="evenodd" d="M154.587 179.511C154.307 180.298 153.693 181.473 152.959 182.661C150.849 186.065 148.206 187.6 147.659 187.894C144.749 189.523 142.079 189.683 140.73 189.763C136.752 189.963 133.815 188.735 133.135 188.428C130.852 187.427 128.622 185.745 125.258 181.299C123.683 179.217 119.985 174.371 115.834 164.466C114.138 160.541 113.537 158.512 111.175 153.679C109.76 150.782 107.73 147.579 107.584 146.884C107.09 148.006 106.369 149.568 105.448 151.41C103.018 156.309 100.548 161.248 96.5302 166.321C93.7001 169.899 92.3117 170.727 89.3348 175.105C88.0666 176.974 87.1321 178.563 86.5314 179.631C85.1965 179.551 83.0472 179.257 80.671 178.162C78.2948 177.081 77.1601 176.12 76.2256 175.159C77.1601 174.438 84.7159 164.372 86.3979 160.981C91.0969 151.57 92.3117 148.113 95.5824 141.798C97.518 138.087 99.2401 135.137 100.375 133.281C100.722 132.801 101.269 132.107 102.11 131.412C102.724 130.905 104.847 129.156 107.837 129.276C110.694 129.25 112.91 131.733 114.499 133.134C119.037 137.153 121.974 140.77 129.277 150.315C132.027 153.906 134.456 157.097 136.472 159.767C138.074 163.144 140.851 167.923 145.523 172.556C148.753 175.773 151.971 177.989 154.587 179.511Z" fill="#0A9CE5"/>
<path fill-rule="evenodd" clip-rule="evenodd" d="M93.4463 169.832C92.4317 171.06 91.9912 172.342 91.831 173.436C91.6441 174.718 91.8443 175.345 91.4038 175.959C91.1101 176.36 90.5227 176.8 89.1477 176.894C89.0409 176.907 88.9742 177.014 89.0009 177.108C89.0943 177.415 89.2145 178.002 88.9208 178.576C88.5203 179.35 87.5591 179.804 86.5446 179.631C86.2509 178.95 85.7169 177.401 86.2242 175.639C86.9184 173.143 90.3091 170.179 93.4463 169.832Z" fill="#0A9CE5"/>
<path d="M82.126 177.054C82.1126 177.054 82.0993 177.054 82.0859 177.041C82.0592 177.014 82.0592 176.974 82.0859 176.947C84.035 174.718 85.9173 172.395 87.6794 170.032C95.0216 160.194 100.789 149.127 104.847 137.152C104.86 137.112 104.9 137.099 104.927 137.112C104.967 137.126 104.98 137.166 104.967 137.193C100.909 149.18 95.1284 160.26 87.7728 170.112C86.0107 172.475 84.1284 174.811 82.1794 177.041C82.166 177.041 82.1393 177.054 82.126 177.054Z" fill="#828282" fill-opacity="0.3"/>
<path d="M142.386 179.737C141.892 179.737 141.371 179.684 140.837 179.577C138.594 179.123 137.099 177.788 136.405 177.027C134.977 175.452 133.588 173.797 132.267 172.101C128.489 167.215 123.122 157.63 118.81 149.941C115.74 144.455 113.083 139.715 111.762 138.02C111.482 137.66 110.827 136.819 109.653 136.311C109.079 136.071 108.465 135.938 107.81 135.911C107.77 135.911 107.744 135.884 107.744 135.844C107.744 135.804 107.77 135.777 107.81 135.777C108.478 135.791 109.119 135.924 109.706 136.178C110.907 136.698 111.575 137.566 111.869 137.927C113.19 139.635 115.847 144.374 118.931 149.874C123.242 157.564 128.609 167.135 132.387 172.021C133.695 173.717 135.083 175.372 136.512 176.947C137.193 177.695 138.661 179.003 140.877 179.457C144.602 180.218 147.472 177.935 148.006 177.468C148.032 177.441 148.073 177.441 148.099 177.481C148.126 177.508 148.126 177.548 148.086 177.575C147.619 177.975 145.403 179.737 142.386 179.737Z" fill="#828282" fill-opacity="0.3"/>
<path d="M139.796 179.177C139.755 179.177 139.729 179.151 139.729 179.111C139.702 176.828 140.103 174.612 140.93 172.556C141.264 171.728 141.664 170.914 142.132 170.153C142.145 170.126 142.198 170.113 142.225 170.126C142.252 170.14 142.265 170.193 142.252 170.22C141.785 170.981 141.384 171.782 141.064 172.609C140.249 174.652 139.836 176.841 139.876 179.111C139.862 179.151 139.822 179.177 139.796 179.177Z" fill="#828282" fill-opacity="0.3"/>
<path fill-rule="evenodd" clip-rule="evenodd" d="M107.544 146.938C107.13 145.616 106.876 144.642 106.796 142.666C106.356 146.257 103.379 156.656 93.1128 170.246C94.1274 169.111 95.1553 168.03 96.5036 166.321C99.4538 162.61 101.563 158.952 103.432 155.348C103.445 155.348 105.555 154.681 105.047 152.344C105.034 152.278 105.087 152.224 105.141 152.211C105.875 152.091 106.262 151.85 106.569 151.583C106.569 151.583 107.09 151.223 107.277 149.541C107.303 149.461 107.544 147.058 107.544 146.938Z" fill="#0A9CE5"/>
<path d="M86.9584 179.737C86.905 179.737 86.865 179.737 86.8116 179.737C86.7048 179.737 86.6113 179.723 86.5046 179.71C82.4063 179.296 78.9354 177.814 76.1987 175.305C76.172 175.278 76.172 175.238 76.1987 175.211C76.2254 175.184 76.2655 175.184 76.2922 175.211C79.0021 177.707 82.4463 179.176 86.5179 179.59C86.6113 179.603 86.7181 179.616 86.8116 179.616C87.6927 179.657 88.4803 179.256 88.8274 178.575C89.1077 178.015 89.0009 177.44 88.9075 177.147C88.8808 177.08 88.8941 177 88.9342 176.947C88.9742 176.893 89.041 176.853 89.1077 176.84C90.189 176.773 90.9366 176.466 91.3237 175.932C91.6041 175.558 91.6174 175.171 91.6441 174.597C91.6575 174.277 91.6708 173.903 91.7376 173.449C91.9111 172.301 92.3516 171.22 93.0458 170.232C93.0458 170.232 93.0592 170.218 93.0725 170.192C93.5664 169.644 95.2752 167.762 96.4366 166.294C99.5737 162.342 101.683 158.564 103.325 155.387C103.352 155.334 103.392 155.294 103.445 155.28C103.846 155.12 104.566 154.733 104.887 153.879C105.047 153.451 105.074 152.944 104.954 152.41C104.94 152.343 104.954 152.277 104.994 152.223C105.034 152.17 105.087 152.143 105.154 152.13C105.541 152.09 106.088 151.943 106.502 151.542C106.822 151.235 107.009 150.835 107.196 149.54C107.236 149.153 107.263 148.846 107.29 148.525C107.33 148.072 107.383 147.604 107.45 146.937C107.45 146.897 107.49 146.87 107.517 146.87C107.557 146.87 107.583 146.91 107.583 146.937C107.517 147.618 107.477 148.072 107.423 148.525C107.397 148.846 107.356 149.166 107.33 149.54C107.156 150.741 106.983 151.249 106.596 151.623C106.155 152.05 105.581 152.197 105.167 152.25C105.14 152.25 105.114 152.263 105.1 152.29C105.087 152.317 105.074 152.343 105.087 152.37C105.207 152.931 105.181 153.465 105.007 153.919C104.673 154.813 103.912 155.227 103.485 155.4C103.458 155.414 103.445 155.427 103.432 155.441C101.776 158.618 99.6672 162.409 96.53 166.36C95.3686 167.829 93.6465 169.724 93.1526 170.258L93.1259 170.285C92.4451 171.246 92.0045 172.301 91.8444 173.436C91.7776 173.89 91.7643 174.25 91.7509 174.57C91.7242 175.144 91.6975 175.572 91.4038 175.985C91.0033 176.546 90.2157 176.866 89.0944 176.947C89.0677 176.947 89.041 176.96 89.0143 176.987C89.0009 177.013 88.9876 177.04 89.0009 177.08C89.1077 177.387 89.2279 178.001 88.9208 178.602C88.6138 179.309 87.8395 179.737 86.9584 179.737Z" fill="#828282" fill-opacity="0.3"/>
<path d="M139.822 189.964C137.272 189.964 134.215 189.35 130.958 187.401C129.223 186.266 128.128 185.024 127.153 183.836C120.372 176.013 116.42 166.228 114.285 160.969C113.804 159.767 113.417 158.833 113.11 158.165C111.374 154.441 109.585 150.583 108.317 148.594L108.304 148.567C108.157 148.327 107.837 147.833 107.543 147.098C107.143 146.097 107.009 145.216 106.889 144.362C106.809 143.774 106.742 143.174 106.715 142.586C106.715 142.546 106.742 142.52 106.782 142.52C106.822 142.52 106.849 142.546 106.849 142.586C106.876 143.174 106.942 143.774 107.022 144.348C107.143 145.189 107.276 146.07 107.663 147.058C107.943 147.779 108.264 148.26 108.411 148.5L108.424 148.527C109.692 150.516 111.481 154.374 113.217 158.112C113.524 158.779 113.911 159.727 114.391 160.915C116.514 166.161 120.465 175.933 127.234 183.743C128.248 184.971 129.289 186.159 131.011 187.28C136.098 190.324 140.69 190.097 143.64 189.35C147.325 188.428 150.542 186.212 152.464 183.276C153.252 182.141 153.906 180.913 154.413 179.618C154.426 179.578 154.467 179.564 154.493 179.578C154.533 179.591 154.547 179.631 154.533 179.658C154.026 180.953 153.372 182.194 152.571 183.342C150.635 186.306 147.378 188.535 143.667 189.47C142.612 189.763 141.304 189.964 139.822 189.964Z" fill="#828282" fill-opacity="0.3"/>
<g style="mix-blend-mode:lighten">
<path d="M100.375 133.295C99.2401 135.151 97.5181 138.101 95.5824 141.812C92.2984 148.126 91.0969 151.57 86.3979 160.995C84.7025 164.386 77.1601 174.451 76.2256 175.172C87.4125 166.509 97.171 146.711 100.375 133.295Z" fill="white" fill-opacity="0.3"/>
</g>
<path d="M114.192 116.954C112.523 115.205 110.855 113.443 109.186 111.694C108.866 111.347 108.465 111.093 108.025 110.92C105.395 109.919 102.364 108.944 98.9869 108.13C96.1702 107.462 93.5403 107.009 91.1374 106.715C90.9372 106.688 90.777 106.848 90.7903 107.035C90.8037 107.209 90.8437 107.409 90.9372 107.623C91.2442 108.29 91.9117 108.477 92.0185 108.517C93.9141 109.118 95.8097 109.732 97.7054 110.333C97.959 110.413 98.0792 110.693 97.9724 110.933C97.6386 111.641 97.3182 112.362 96.9845 113.069C96.851 113.35 96.8911 113.683 97.0646 113.937C97.4117 114.418 97.7588 114.898 98.1059 115.365C97.9056 115.499 97.6787 115.646 97.4384 115.779C97.158 115.939 96.8911 116.073 96.6508 116.193C96.5707 116.273 96.2903 116.607 96.3971 116.887C96.5306 117.261 97.2515 117.261 97.5452 117.274C97.8522 117.274 98.4796 117.221 99.2005 116.767L100.455 118.142C100.602 118.302 100.843 118.342 101.043 118.235C101.083 118.209 101.123 118.182 101.176 118.142C101.523 117.835 101.47 117.368 101.457 117.314C101.55 117.288 101.804 117.208 101.964 116.967C102.177 116.674 102.177 116.246 101.964 115.886L105.248 115.352C105.715 115.272 106.182 115.485 106.449 115.886C107.41 117.368 108.372 118.85 109.319 120.331C110.935 119.197 112.563 118.075 114.192 116.954Z" fill="#F7B2B2"/>
<path d="M105.261 115.325C105.381 115.311 105.661 115.311 105.955 115.458C106.182 115.565 106.315 115.725 106.382 115.819C106.462 115.939 106.596 116.139 106.769 116.393C107.477 117.447 107.81 118.021 108.571 119.196C108.732 119.436 108.972 119.823 109.292 120.304C109.88 119.904 110.48 119.503 111.068 119.103C110.56 118.662 110.027 118.155 109.479 117.581C108.611 116.66 107.931 115.752 107.383 114.938C107.116 115.004 106.849 115.058 106.556 115.111C106.115 115.204 105.675 115.271 105.261 115.325Z" fill="#F38484"/>
<path d="M100.295 111.667C99.9876 112.121 99.6672 112.575 99.3602 113.029C99.2667 113.162 99.2801 113.349 99.4002 113.456C99.6538 113.723 99.9075 113.99 100.161 114.257C100.388 114.11 100.628 113.936 100.869 113.723C101.069 113.549 101.242 113.376 101.403 113.216C101.349 113.002 101.242 112.655 100.989 112.294C100.735 111.987 100.468 111.774 100.295 111.667Z" fill="#F38484"/>
<path d="M109.279 120.411L106.369 115.899C106.128 115.525 105.674 115.325 105.234 115.392L102.03 115.913C102.204 116.273 102.19 116.687 101.977 116.981C101.83 117.194 101.616 117.288 101.483 117.341C101.496 117.488 101.483 117.888 101.176 118.169C101.162 118.182 101.162 118.182 101.149 118.195C100.909 118.396 100.562 118.369 100.348 118.142L99.1599 116.847C98.6393 117.167 98.0786 117.341 97.5312 117.341H97.5179C96.5434 117.314 96.3164 116.981 96.2764 116.794C96.2096 116.527 96.3832 116.26 96.5968 116.14C96.8638 116.006 97.1308 115.873 97.3844 115.726C97.5846 115.606 97.7849 115.485 97.9851 115.352L96.9839 113.977C96.7837 113.71 96.757 113.349 96.8905 113.042L97.8783 110.907C97.9184 110.813 97.9184 110.706 97.8783 110.599C97.8383 110.493 97.7582 110.426 97.6514 110.399L91.9645 108.584C91.7776 108.53 91.1502 108.317 90.8431 107.663C90.7497 107.476 90.7096 107.262 90.6963 107.049C90.6963 106.942 90.7363 106.835 90.8164 106.755C90.8965 106.675 91.0167 106.635 91.1235 106.648C93.7533 106.982 96.4099 107.449 98.9863 108.063C102.043 108.797 105.087 109.732 108.037 110.853C108.478 111.027 108.892 111.294 109.225 111.641L114.285 116.967L109.279 120.411ZM105.421 115.245C105.848 115.245 106.248 115.459 106.475 115.819L109.319 120.211L114.085 116.927L109.132 111.721C108.812 111.387 108.424 111.133 107.997 110.96C105.06 109.839 102.017 108.904 98.9596 108.17C96.3832 107.556 93.74 107.075 91.1101 106.755C91.03 106.741 90.9633 106.768 90.9099 106.822C90.8565 106.875 90.8298 106.942 90.8298 107.008C90.8431 107.209 90.8832 107.396 90.9633 107.569C91.2436 108.17 91.831 108.37 92.0045 108.424L97.6914 110.239C97.8249 110.279 97.9451 110.386 97.9985 110.519C98.0519 110.653 98.0519 110.8 97.9985 110.933L97.0106 113.069C96.8905 113.336 96.9172 113.643 97.0907 113.87L98.172 115.352L98.1186 115.392C97.905 115.539 97.6781 115.672 97.4511 115.806C97.1975 115.953 96.9172 116.099 96.6502 116.22C96.49 116.313 96.3431 116.527 96.3965 116.727C96.4633 116.994 96.8771 117.154 97.5179 117.181H97.5312C98.0652 117.181 98.6259 117.007 99.1332 116.687L99.1866 116.66L100.455 118.035C100.615 118.209 100.895 118.235 101.082 118.075L101.109 118.049C101.429 117.768 101.376 117.328 101.376 117.288L101.363 117.234L101.416 117.221C101.536 117.194 101.75 117.101 101.883 116.9C102.083 116.62 102.07 116.233 101.883 115.899L101.83 115.819L105.221 115.258C105.287 115.245 105.354 115.245 105.421 115.245Z" fill="#F38484"/>
<path d="M98.1051 115.432C98.0784 115.432 98.0517 115.419 98.0383 115.392C98.025 115.352 98.0383 115.326 98.0784 115.299C98.8793 114.978 99.6269 114.565 100.308 114.057C100.655 113.804 100.989 113.523 101.309 113.23C101.189 112.802 100.989 112.429 100.708 112.108C100.468 111.828 99.9339 111.481 99.133 111.054C99.0662 111.014 98.9861 110.974 98.906 110.934C98.5723 110.76 98.1718 110.533 97.6378 110.36C97.5978 110.346 97.5844 110.306 97.5978 110.279C97.6111 110.239 97.6512 110.226 97.6779 110.239C98.2119 110.426 98.6257 110.64 98.9594 110.827C99.0395 110.867 99.1063 110.907 99.1864 110.947C100.428 111.588 100.708 111.921 100.802 112.028C101.095 112.375 101.309 112.776 101.442 113.243L101.456 113.283L101.429 113.31C101.095 113.617 100.748 113.911 100.388 114.177C99.6937 114.685 98.9327 115.099 98.1184 115.432C98.1184 115.432 98.1184 115.432 98.1051 115.432Z" fill="#F38484"/>
<path d="M99.1599 116.834C99.1332 116.834 99.1065 116.82 99.0931 116.794C99.0798 116.754 99.0931 116.727 99.1198 116.7C99.6939 116.447 100.148 116.3 100.735 116.126C100.869 116.086 101.002 116.046 101.136 116.006C101.389 115.926 101.656 115.846 101.91 115.793C101.95 115.779 101.977 115.806 101.99 115.846C102.003 115.886 101.977 115.913 101.937 115.926C101.696 115.979 101.429 116.06 101.176 116.14C101.042 116.18 100.909 116.22 100.775 116.26C100.174 116.433 99.7473 116.567 99.1732 116.82C99.1732 116.834 99.1732 116.834 99.1599 116.834Z" fill="#F38484"/>
<path d="M98.7066 115.139C98.6932 115.139 98.6665 115.125 98.6532 115.112C98.3328 114.778 97.8255 114.124 97.5585 113.777C97.385 113.55 97.3449 113.243 97.4651 112.976C98.0658 111.668 98.4262 110.827 98.4529 110.72C98.4529 110.707 98.4529 110.68 98.4796 110.667C98.5063 110.64 98.5464 110.64 98.5731 110.667C98.6131 110.707 98.6265 110.733 97.5852 113.029C97.4918 113.243 97.5185 113.497 97.6653 113.697C97.9323 114.057 98.4396 114.698 98.7466 115.032C98.7733 115.058 98.7733 115.099 98.7466 115.125C98.7333 115.139 98.7199 115.139 98.7066 115.139Z" fill="#F38484"/>
<path d="M101.403 117.381C101.389 117.381 101.376 117.381 101.363 117.368C101.162 117.221 100.935 117.074 100.722 116.927C100.508 116.78 100.281 116.633 100.081 116.487C100.054 116.46 100.041 116.42 100.068 116.393C100.094 116.366 100.135 116.353 100.161 116.38C100.361 116.527 100.588 116.673 100.802 116.82C101.016 116.967 101.243 117.114 101.443 117.261C101.469 117.288 101.483 117.328 101.456 117.354C101.443 117.381 101.429 117.381 101.403 117.381Z" fill="#F38484"/>
<path d="M105.368 115.366C105.327 115.366 105.301 115.339 105.301 115.312C105.301 115.272 105.327 115.246 105.354 115.246C105.528 115.232 105.715 115.205 105.888 115.179C106.569 115.085 107.25 114.925 107.917 114.712C107.957 114.698 107.984 114.725 107.997 114.752C108.011 114.792 107.984 114.818 107.957 114.832C107.29 115.045 106.596 115.205 105.902 115.299C105.728 115.326 105.554 115.352 105.368 115.366Z" fill="#F38484"/>
<path d="M100.962 118.048C100.948 118.048 100.935 118.048 100.922 118.034L100.388 117.554C100.388 117.554 100.267 117.474 100.147 117.527C100.081 117.554 100.04 117.594 100.027 117.621C100 117.647 99.9604 117.661 99.9337 117.634C99.907 117.607 99.8936 117.567 99.9203 117.541C99.947 117.487 100.014 117.434 100.107 117.394C100.294 117.327 100.454 117.42 100.481 117.447L101.015 117.928C101.042 117.954 101.042 117.994 101.015 118.021C100.988 118.048 100.975 118.048 100.962 118.048Z" fill="#F38484"/>
<path d="M101.67 116.941C101.656 116.941 101.643 116.941 101.63 116.928C101.403 116.768 101.176 116.634 100.949 116.541C100.802 116.487 100.709 116.461 100.615 116.501C100.548 116.528 100.495 116.568 100.442 116.648C100.415 116.674 100.375 116.688 100.348 116.661C100.322 116.634 100.308 116.594 100.335 116.568C100.402 116.474 100.482 116.407 100.562 116.381C100.722 116.327 100.855 116.367 101.002 116.421C101.243 116.514 101.483 116.661 101.723 116.835C101.75 116.861 101.763 116.901 101.737 116.928C101.71 116.928 101.683 116.941 101.67 116.941Z" fill="#F38484"/>
<path d="M97.0771 116.914C96.9837 116.914 96.8903 116.9 96.7968 116.874C96.7167 116.847 96.6233 116.807 96.5432 116.767C96.5165 116.754 96.5031 116.714 96.5165 116.674C96.5298 116.647 96.5699 116.633 96.6099 116.647C96.6767 116.687 96.7568 116.714 96.8235 116.74C97.224 116.847 97.5978 116.647 97.7313 116.553C97.7713 116.527 97.8381 116.46 97.8514 116.353C97.8781 116.193 97.7446 116.033 97.5577 115.966C97.5177 115.953 97.5043 115.913 97.5177 115.886C97.531 115.846 97.5711 115.832 97.5978 115.846C97.8514 115.926 98.0116 116.153 97.9849 116.38C97.9716 116.527 97.8648 116.62 97.798 116.674C97.6645 116.767 97.3975 116.914 97.0771 116.914Z" fill="#F38484"/>
<path d="M92.4853 107.596C92.245 107.596 92.0047 107.569 91.7644 107.529C91.5642 107.489 91.3639 107.449 91.1637 107.382C91.1237 107.369 91.1103 107.329 91.1237 107.302C91.137 107.262 91.1771 107.249 91.2038 107.262C91.3906 107.329 91.5909 107.369 91.7911 107.409C92.0581 107.449 92.3251 107.476 92.5921 107.462C92.6455 107.436 92.7389 107.396 92.819 107.289C92.8991 107.155 92.8991 107.035 92.8991 106.982C92.8991 106.942 92.9258 106.915 92.9525 106.915C92.9926 106.915 93.0193 106.942 93.0193 106.968C93.0326 107.049 93.0193 107.209 92.9258 107.369C92.8324 107.516 92.6989 107.583 92.6322 107.596H92.6055C92.5654 107.596 92.5254 107.596 92.4853 107.596Z" fill="#F38484"/>
<path d="M150.849 121.013C149.781 121.16 148.179 121.413 146.284 121.867C141.505 123.015 138.955 124.417 135.711 125.578C133.361 126.419 129.984 127.38 125.565 127.808C125.111 127.848 124.671 127.701 124.35 127.38C122.495 125.605 120.613 123.723 118.717 121.72C117.115 120.038 115.593 118.37 114.151 116.728C113.484 117.248 112.763 117.769 112.016 118.303C110.934 119.05 109.88 119.718 108.878 120.305C109.813 122.107 110.934 124.043 112.309 126.019C115.54 130.678 119.104 134.149 122.201 136.658C122.722 137.072 123.376 137.286 124.043 137.246C124.938 137.192 126.046 137.112 127.314 137.019C132.414 136.618 135.751 136.351 139.742 135.444C141.104 135.136 143.04 134.643 145.309 133.868C147.138 129.583 148.994 125.298 150.849 121.013Z" fill="#35489E"/>
<path d="M124.017 133.294C122.242 132.106 117.916 128.849 110.841 119.063C110.16 119.504 109.506 119.904 108.852 120.292C109.787 122.094 110.908 124.029 112.283 126.005C115.513 130.664 119.078 134.135 122.175 136.645C122.695 137.059 123.35 137.272 124.017 137.232C124.912 137.179 126.02 137.099 127.288 137.005C132.387 136.605 135.725 136.338 139.716 135.43C141.078 135.123 143.013 134.629 145.283 133.855C146.124 131.919 146.952 129.997 147.793 128.061C138.394 131.639 125.672 134.015 124.017 133.294Z" fill="#213B8E"/>
<path fill-rule="evenodd" clip-rule="evenodd" d="M150.142 123.803C149.007 125.645 147.993 127.1 147.298 128.061C145.723 130.237 142.119 135.136 139.662 138.981C139.409 139.368 139.062 140.009 138.861 140.85C138.341 142.999 139.155 144.908 139.489 145.643C140.036 146.871 140.343 146.831 140.73 147.952C140.73 147.952 141.238 149.407 141.091 151.329C140.77 155.348 136.539 159.446 136.298 159.673C136.766 160.514 137.473 161.782 138.341 163.317C141.545 168.951 143.133 171.754 144.295 173.169C145.883 175.118 148.967 177.962 155.121 179.657C155.508 178.082 155.976 176.413 156.536 174.691C157.604 171.42 158.846 168.51 160.087 165.987C158.939 160.22 154.12 152.251 153.079 149.647C151.57 145.923 149.287 140.276 150.235 133.575C150.516 131.585 151.236 128.382 153.426 124.697C152.331 124.39 151.236 124.096 150.142 123.803Z" fill="#FFF9B0"/>
<g style="mix-blend-mode:lighten">
<path d="M150.142 123.803C149.007 125.645 147.993 127.1 147.299 128.061C145.723 130.237 142.119 135.136 139.663 138.981C139.409 139.368 139.062 140.009 138.862 140.85C146.257 136.645 151.237 128.368 153.426 124.697C152.331 124.39 151.237 124.096 150.142 123.803Z" fill="white" fill-opacity="0.3"/>
</g>
<path d="M150.89 141.117C150.382 138.26 149.808 134.883 150.716 130.638C151.037 129.143 151.45 127.928 151.784 127.087C150.956 128.622 149.875 130.985 149.208 134.015C148.247 138.394 148.634 141.932 148.941 144.668C149.315 148.072 150.049 150.729 150.623 152.838C150.783 153.412 150.943 153.959 151.103 154.493C151.838 156.923 151.717 159.54 150.73 161.876C149.301 165.293 147.259 169.245 144.282 173.169C145.87 175.118 148.954 177.962 155.108 179.657C155.495 178.082 155.963 176.413 156.523 174.691C157.591 171.421 158.833 168.51 160.074 165.987C159.233 161.689 151.384 143.854 150.89 141.117Z" fill="#F9C973"/>
<path d="M140.73 147.952C140.73 147.952 141.238 149.407 141.091 151.33C140.77 155.348 136.539 159.446 136.298 159.673C136.565 160.154 136.912 160.781 137.326 161.529C144.321 154.253 141.571 149.02 140.73 147.952Z" fill="#F9C973"/>
<path d="M151.17 126.58C150.489 126.58 149.848 126.246 149.662 125.993C149.635 125.966 149.648 125.926 149.675 125.899C149.702 125.873 149.742 125.886 149.768 125.913C149.982 126.206 150.863 126.593 151.651 126.38C151.691 126.367 151.717 126.393 151.731 126.42C151.744 126.447 151.717 126.487 151.691 126.5C151.517 126.553 151.344 126.58 151.17 126.58Z" fill="#F9C973"/>
<path d="M154.975 179.684H154.961C150.876 178.576 148.447 177.028 147.365 176.214C145.95 175.146 144.882 173.904 144.869 173.891C144.509 173.477 144.175 173.036 143.855 172.583C142.453 170.5 141.091 168.351 139.823 166.188C138.581 164.079 137.473 162.023 136.299 159.7C136.285 159.674 136.299 159.633 136.325 159.607C136.352 159.593 136.392 159.607 136.419 159.633C137.58 161.943 138.702 164.012 139.943 166.108C141.211 168.271 142.56 170.42 143.961 172.502C144.268 172.943 144.602 173.383 144.963 173.797C144.976 173.811 146.03 175.039 147.432 176.093C148.513 176.908 150.916 178.443 154.988 179.551C155.028 179.564 155.041 179.591 155.041 179.631C155.028 179.658 155.001 179.684 154.975 179.684Z" fill="#F9C973"/>
<path d="M138.809 142.853C138.902 143.293 139.116 144.041 139.703 144.802C140.13 145.376 140.611 145.736 140.945 145.95C140.851 146.11 140.744 146.31 140.678 146.577C140.517 147.218 140.678 147.765 140.771 147.992C140.37 147.204 139.97 146.43 139.57 145.643C139.409 145.322 139.262 144.935 139.129 144.495C138.942 143.88 138.849 143.32 138.809 142.853Z" fill="#F9C973"/>
<path d="M143.961 146.403C148.487 146.87 148.767 142.972 148.727 142.759C150.182 145.335 150.97 150.715 150.663 152.971C150.356 151.997 150.116 150.101 147.152 148.619C145.857 148.099 145.029 147.565 143.961 146.403Z" fill="#F9C973"/>
<path d="M147.512 115.539C148.086 116.153 148.767 117.007 149.274 118.156C149.848 119.437 149.969 120.518 150.115 121.666C150.222 122.521 150.289 123.615 150.209 124.91C150.329 125.004 150.529 125.124 150.783 125.217C151.771 125.605 152.705 125.257 153.066 125.124C153.786 124.857 153.92 124.577 154.961 123.842C155.015 123.802 156.189 122.961 157.124 122.507C157.858 122.147 159.086 121.733 160.915 121.84C160.461 121.213 159.967 120.398 159.553 119.397C158.819 117.608 158.646 115.993 158.632 114.912C157.538 113.777 156.43 112.629 155.335 111.494C152.705 112.842 150.102 114.191 147.512 115.539Z" fill="#F38484"/>
<path d="M147.512 115.539C148.086 116.153 148.767 117.007 149.274 118.156C153.493 117.395 155.909 114.912 156.99 113.243C156.43 112.656 155.869 112.082 155.295 111.494C152.705 112.842 150.102 114.191 147.512 115.539Z" fill="#828282" fill-opacity="0.3"/>
<path d="M151.677 125.497C151.49 125.497 151.29 125.484 151.077 125.43C150.676 125.35 150.329 125.083 150.155 124.923C150.129 124.896 150.129 124.856 150.142 124.83C150.155 124.803 150.209 124.803 150.236 124.816C150.396 124.963 150.729 125.204 151.103 125.284C151.797 125.43 152.398 125.284 152.799 125.123C152.839 125.11 152.865 125.123 152.892 125.163C152.919 125.204 152.892 125.23 152.852 125.257C152.558 125.377 152.144 125.497 151.677 125.497Z" fill="#F9C973"/>
<path d="M154.854 112.748C155.068 113.122 155.348 113.536 155.695 113.949C156.75 115.191 157.978 115.858 158.806 116.219C159.233 116.152 159.847 116.019 160.541 115.725C160.541 115.725 162.237 115.004 163.652 113.242C166.161 110.091 165.681 104.658 165.654 104.324C165.627 103.75 165.534 102.936 165.254 102.015C164.693 100.186 163.705 99.0246 163.251 98.504C160.501 95.3268 156.563 94.7795 154.948 94.5525C153.72 94.379 152.678 94.3923 151.624 94.646C150.823 94.8329 149.782 95.0865 148.82 95.9809C148.567 96.2212 147.739 96.9955 147.486 98.1168C147.365 98.6642 147.232 99.8923 149.568 103.176C151.45 105.833 152.251 106.046 153.293 107.835C154.387 109.677 154.734 111.506 154.854 112.748Z" fill="#353437"/>
<path d="M166.575 103.376C166.789 103.456 167.163 103.616 167.47 104.003C168.124 104.804 167.857 105.832 167.83 105.952C167.697 106.593 167.536 107.514 167.39 108.622C167.069 111.065 166.602 114.656 167.39 118.3C167.697 119.702 168.765 124.655 173.25 128.246C174.225 129.033 177.188 131.316 181.687 131.623C185.799 131.89 188.856 130.342 190.03 129.674C190.925 129.834 192.166 129.941 193.581 129.674C197.279 128.967 199.388 126.23 199.976 125.416C199.121 125.696 197.6 126.083 195.717 125.856C194.422 125.696 193.394 125.309 192.7 124.962C193.394 124.895 194.502 124.708 195.717 124.067C196.705 123.547 197.399 122.933 197.853 122.465C197.066 122.599 195.877 122.706 194.476 122.465C191.913 122.038 190.231 120.73 189.056 119.796C185.692 117.126 184.05 113.695 183.289 111.719C182.795 110.064 181.927 108.021 180.365 106.032C179.511 104.951 176.601 101.387 171.488 100.265C169.032 99.7312 166.936 99.9314 165.627 100.172C165.828 100.465 166.068 100.839 166.255 101.32C166.535 102.161 166.575 102.895 166.575 103.376Z" fill="#353437"/>
<path fill-rule="evenodd" clip-rule="evenodd" d="M164.479 100.199C164.64 100.132 165.067 99.9852 165.547 100.145C166.322 100.199 167.403 102.428 166.736 103.576C166.455 104.07 165.948 104.391 165.668 104.524C165.614 102.735 164.987 101.147 164.479 100.199Z" fill="#FFF9B0"/>
<path d="M147.886 97.876C147.312 98.2498 146.377 98.9573 145.617 100.145C145.456 100.399 144.829 101.414 144.549 102.895C144.482 103.229 144.455 103.536 144.428 103.79C144.415 104.017 144.322 104.217 144.161 104.377C143.374 105.151 142.546 106.006 141.758 106.793C141.545 107.007 141.532 107.354 141.758 107.581C141.985 107.808 142.266 108.075 142.479 108.275C142.626 108.409 142.666 108.622 142.559 108.796C142.479 108.929 142.386 109.103 142.306 109.236C142.199 109.423 142.239 109.664 142.399 109.81C142.813 110.184 143.227 110.558 143.641 110.932C143.774 111.052 143.721 111.266 143.561 111.319L142.813 111.546C142.64 111.599 142.546 111.8 142.613 111.96L142.786 112.36C142.867 112.547 142.853 112.774 142.746 112.948C142.533 113.308 142.373 113.602 142.159 113.962C142.052 114.189 141.999 114.456 142.066 114.723C142.132 114.95 142.373 115.364 143.307 115.764C144.255 116.178 146.938 116.565 149.568 115.858C151.797 115.27 153.319 113.842 154.147 112.881C154.307 112.934 154.561 112.974 154.854 112.921C155.228 112.854 155.535 112.641 155.869 112.253C156.71 111.319 157.297 109.891 157.471 109.45C157.498 109.343 157.791 108.529 157.377 107.942C156.964 107.381 156.176 106.954 155.295 107.541C155.108 107.688 154.934 107.875 154.774 108.102C154.708 108.182 154.574 108.155 154.574 108.048C154.547 107.648 154.454 107.1 154.28 106.62C153.8 105.312 152.745 104.671 152.411 104.484C151.744 104.124 150.823 103.509 149.968 102.535C148.407 100.733 148.006 98.7704 147.886 97.876Z" fill="#F7B2B2"/>
<path d="M145.083 116.166C146.324 116.313 147.953 116.286 149.568 115.845C151.797 115.258 153.319 113.83 154.147 112.868C153.84 112.802 153.573 112.495 153.439 112.188C153.386 112.067 153.266 112.014 153.146 112.027C149.795 112.722 148.086 115.458 145.083 116.166Z" fill="#F38484"/>
<path d="M155.762 111.533C155.749 111.533 155.735 111.533 155.722 111.52C155.695 111.507 155.682 111.453 155.695 111.426C155.709 111.413 156.389 110.292 156.67 109.544C156.91 109.01 156.723 108.463 156.416 108.209C156.162 108.009 155.869 108.009 155.588 108.223C155.562 108.249 155.522 108.236 155.495 108.209C155.468 108.183 155.482 108.142 155.508 108.116C155.829 107.875 156.203 107.875 156.496 108.116C156.843 108.396 157.057 109.01 156.79 109.598C156.496 110.345 155.802 111.493 155.802 111.493C155.802 111.52 155.775 111.533 155.762 111.533Z" fill="#F38484"/>
<path d="M155.001 110.225C154.934 110.225 154.867 110.211 154.814 110.198C154.774 110.185 154.761 110.145 154.774 110.118C154.787 110.078 154.827 110.064 154.854 110.078C155.001 110.118 155.201 110.104 155.295 109.984C155.401 109.864 155.388 109.651 155.241 109.37C155.001 108.916 155.134 108.609 155.241 108.462C155.268 108.436 155.308 108.422 155.335 108.449C155.361 108.476 155.375 108.516 155.348 108.543C155.268 108.663 155.161 108.93 155.361 109.317C155.562 109.744 155.495 109.958 155.388 110.078C155.295 110.171 155.148 110.225 155.001 110.225Z" fill="#F38484"/>
<path d="M147.178 105.913C147.138 105.913 147.112 105.899 147.085 105.873C146.991 105.766 146.885 105.659 146.778 105.539C146.324 105.032 145.763 104.391 145.149 104.337C145.082 104.337 145.016 104.271 145.029 104.191C145.029 104.11 145.096 104.057 145.176 104.07C145.897 104.124 146.498 104.805 146.978 105.352C147.085 105.472 147.178 105.592 147.272 105.686C147.325 105.739 147.325 105.819 147.272 105.873C147.245 105.899 147.218 105.913 147.178 105.913Z" fill="#353437"/>
<path d="M146.241 105.301C146.305 104.879 146.156 104.506 145.908 104.468C145.66 104.431 145.407 104.743 145.344 105.166C145.28 105.589 145.429 105.962 145.677 105.999C145.925 106.037 146.177 105.724 146.241 105.301Z" fill="#353437"/>
<path d="M145.243 103.135L145.576 103.042C145.87 102.962 146.177 103.002 146.431 103.175C146.711 103.376 147.018 103.616 147.325 103.91C147.646 104.217 147.953 104.537 148.193 104.831C148.26 104.911 148.406 104.831 148.366 104.737C148.233 104.377 148.019 103.923 147.739 103.482C147.392 102.935 146.978 102.548 146.644 102.294C146.351 102.081 145.963 102.054 145.656 102.254C145.59 102.294 145.536 102.334 145.47 102.388C145.283 102.548 145.149 102.708 145.056 102.868C144.922 103.002 145.069 103.189 145.243 103.135Z" fill="#353437"/>
<path d="M143.16 108.662C143.067 108.662 142.96 108.649 142.853 108.622C142.787 108.609 142.733 108.529 142.76 108.462C142.773 108.395 142.853 108.355 142.92 108.369C143.241 108.449 143.561 108.355 143.681 108.142C143.748 108.022 143.748 107.888 143.721 107.795C143.708 107.728 143.748 107.648 143.828 107.634C143.895 107.621 143.975 107.661 143.988 107.741C144.015 107.875 144.028 108.088 143.908 108.275C143.788 108.515 143.494 108.662 143.16 108.662Z" fill="#828282" fill-opacity="0.3"/>
<path d="M144.535 111.506C144.521 111.506 144.521 111.506 144.508 111.506C144.214 111.466 143.934 111.359 143.707 111.226C143.253 110.945 142.212 109.771 142.145 109.664C142.105 109.597 142.132 109.517 142.199 109.477C142.265 109.437 142.346 109.463 142.372 109.53C142.452 109.637 143.427 110.745 143.841 110.999C144.041 111.119 144.281 111.212 144.548 111.252C144.615 111.266 144.668 111.332 144.655 111.399C144.668 111.453 144.602 111.506 144.535 111.506Z" fill="#828282" fill-opacity="0.3"/>
<path d="M142.8 112.4C142.893 112.427 143.04 112.454 143.2 112.481C143.347 112.494 143.641 112.534 144.001 112.454C144.121 112.427 144.295 112.374 144.482 112.28C144.375 112.454 144.228 112.667 144.001 112.854C143.414 113.362 142.733 113.428 142.466 113.442C142.573 113.268 142.8 112.854 142.826 112.748C142.853 112.601 142.813 112.481 142.8 112.4Z" fill="#F38484"/>
<path d="M162.664 123.295C161.463 121.546 159.634 121.466 158.753 121.56C155.776 121.907 153.947 124.069 153.133 125.044C150.663 127.981 150.062 131.398 149.782 133.601C149.528 135.643 149.475 138.954 150.836 144.227C152.251 149.66 153.947 151.956 156.844 158.231C159.207 164.211 160.622 167.455 161.302 171.58C162.21 177.027 161.663 182.126 160.501 186.585C161.596 186.558 162.784 186.452 164.052 186.225C168.231 185.504 171.461 183.822 173.637 182.407C173.077 180.444 172.209 177.481 171.154 173.89C166.095 156.695 164.813 153.225 163.612 148.405C162.117 142.291 162.344 134.896 162.664 123.295Z" fill="#35489E"/>
<path d="M160.475 186.545H160.461C160.421 186.531 160.408 186.505 160.408 186.465C160.915 184.582 161.276 182.647 161.476 180.711C161.81 177.334 161.663 173.929 161.035 170.605C160.501 167.762 159.767 165.826 158.552 162.622C157.631 160.193 156.59 157.443 154.921 154.279L154.788 154.025C154.214 152.957 153.253 151.155 152.251 148.592C151.998 147.951 151.758 147.284 151.544 146.63C150.69 144.347 150.129 141.984 149.849 139.608C149.608 137.499 149.208 133.974 150.476 129.996C151.05 128.194 151.864 126.605 152.879 125.27C153.974 123.842 154.975 123.094 155.469 122.774C156.069 122.387 157.191 121.666 158.779 121.519C161.543 121.226 162.704 123.335 162.717 123.361C162.731 123.388 162.717 123.428 162.691 123.455C162.664 123.468 162.624 123.455 162.597 123.428C162.584 123.402 161.463 121.372 158.793 121.653C157.231 121.786 156.176 122.48 155.535 122.881C155.041 123.201 154.054 123.936 152.972 125.351C151.958 126.672 151.157 128.247 150.583 130.036C149.315 133.988 149.702 137.365 149.969 139.594C150.236 141.957 150.81 144.32 151.651 146.59C151.878 147.244 152.105 147.898 152.358 148.539C153.359 151.102 154.307 152.891 154.881 153.959L155.015 154.212C156.697 157.376 157.738 160.139 158.659 162.569C159.874 165.786 160.608 167.722 161.156 170.579C161.783 173.916 161.943 177.334 161.596 180.724C161.396 182.673 161.049 184.622 160.528 186.505C160.541 186.531 160.515 186.545 160.475 186.545Z" fill="#828282" fill-opacity="0.3"/>
<path d="M150.195 124.87C147.632 128.221 144.949 131.545 142.386 134.909C143.48 131.986 146.778 125.925 150.195 122.574C150.249 123.455 150.262 124.056 150.195 124.87Z" fill="#5067BC"/>
<path d="M171.22 179.069C172.048 180.457 172.876 181.939 173.703 183.488C174.304 184.622 174.878 185.744 175.412 186.838C175.719 187.452 176.226 188.187 176.907 188.253C177.561 188.32 182.394 189.014 183.916 189.441C184.209 189.535 185.224 189.949 185.598 189.401C185.798 189.148 185.718 188.614 185.237 188.267C186.372 188.16 187.493 188.053 188.628 187.946C188.895 187.92 189.149 187.96 189.402 188.053C190.377 188.44 191.365 188.827 192.339 189.215C192.433 189.268 192.726 189.428 193.113 189.388C193.581 189.348 193.874 189.041 193.941 188.974C194.075 189.001 194.342 189.028 194.649 188.921C194.876 188.841 195.036 188.707 195.156 188.587C195.316 188.414 195.263 188.133 195.049 188.026C194.248 187.613 193.434 187.199 192.633 186.785C191.712 186.304 190.791 185.824 189.883 185.343C189.736 185.263 189.589 185.223 189.429 185.21C187.707 185.09 185.905 184.916 184.049 184.689C182.567 184.516 181.126 184.315 179.751 184.088C179.283 184.008 178.883 183.741 178.629 183.341C178.189 182.62 177.748 181.859 177.308 181.045C176.493 179.536 175.839 178.081 175.292 176.746C173.944 177.507 172.582 178.295 171.22 179.069Z" fill="#F7B2B2"/>
<path d="M184.97 189.749C184.597 189.749 184.196 189.616 183.969 189.536L183.902 189.509C182.394 189.095 177.575 188.401 176.907 188.334C176.133 188.254 175.612 187.386 175.359 186.879C174.811 185.758 174.237 184.636 173.65 183.528C172.862 182.047 172.021 180.551 171.167 179.11L171.127 179.056L171.18 179.016L175.332 176.653L175.359 176.72C175.946 178.189 176.627 179.63 177.375 181.019C177.788 181.793 178.229 182.567 178.696 183.315C178.936 183.702 179.324 183.956 179.764 184.036C181.192 184.263 182.634 184.463 184.063 184.636C185.838 184.85 187.654 185.023 189.442 185.157C189.616 185.17 189.776 185.21 189.923 185.29C190.831 185.771 191.765 186.252 192.673 186.732C193.487 187.159 194.288 187.573 195.089 187.974C195.209 188.04 195.29 188.147 195.316 188.281C195.343 188.414 195.303 188.548 195.209 188.641C195.063 188.801 194.876 188.922 194.675 189.002C194.395 189.108 194.142 189.095 193.968 189.068C193.848 189.202 193.554 189.442 193.127 189.482C192.753 189.522 192.459 189.375 192.313 189.295L189.376 188.134C189.149 188.04 188.882 188 188.642 188.027L185.411 188.334C185.611 188.521 185.731 188.748 185.758 188.988C185.785 189.175 185.745 189.349 185.651 189.469C185.491 189.669 185.237 189.749 184.97 189.749ZM171.314 179.096C172.168 180.525 172.983 181.993 173.77 183.462C174.358 184.57 174.932 185.691 175.479 186.812C175.719 187.293 176.213 188.121 176.921 188.187C177.588 188.254 182.434 188.962 183.942 189.375L184.023 189.402C184.356 189.522 185.237 189.829 185.558 189.362C185.625 189.269 185.665 189.135 185.638 188.988C185.611 188.735 185.451 188.494 185.211 188.321L185.077 188.214L188.642 187.88C188.908 187.854 189.189 187.894 189.442 188L192.379 189.162C192.513 189.242 192.78 189.362 193.114 189.335C193.527 189.295 193.808 189.042 193.901 188.935L193.928 188.908H193.968C194.128 188.935 194.368 188.948 194.649 188.855C194.836 188.788 194.996 188.681 195.129 188.534C195.196 188.468 195.223 188.374 195.196 188.294C195.183 188.201 195.116 188.121 195.036 188.081C194.235 187.667 193.421 187.253 192.62 186.839C191.712 186.372 190.791 185.878 189.87 185.397C189.736 185.331 189.589 185.29 189.442 185.277C187.654 185.144 185.838 184.97 184.063 184.756C182.634 184.583 181.179 184.383 179.751 184.156C179.27 184.076 178.843 183.795 178.589 183.381C178.122 182.634 177.682 181.86 177.268 181.072C176.534 179.697 175.866 178.282 175.279 176.827L171.314 179.096Z" fill="#F38484"/>
<path d="M185.277 188.387C185.264 188.387 185.264 188.387 185.25 188.387C184.703 188.133 184.156 187.933 183.595 187.773C182.687 187.506 182.247 187.386 182.233 187.386L182.153 187.359C181.86 187.279 181.566 187.212 181.219 187.052C181.005 186.945 180.792 186.825 180.591 186.692C180.565 186.665 180.551 186.625 180.578 186.598C180.605 186.572 180.645 186.558 180.671 186.585C180.858 186.718 181.072 186.839 181.286 186.932C181.633 187.092 181.886 187.159 182.193 187.239L182.273 187.266C182.273 187.266 182.727 187.386 183.635 187.653C184.196 187.813 184.756 188.027 185.304 188.28C185.344 188.294 185.357 188.334 185.33 188.374C185.33 188.374 185.304 188.387 185.277 188.387Z" fill="#F38484"/>
<path d="M193.941 189.054C193.928 189.054 193.928 189.054 193.915 189.054C193.875 189.041 193.861 189.001 193.875 188.961C193.888 188.934 193.928 188.814 193.875 188.694C193.835 188.614 193.768 188.561 193.741 188.547L190.03 186.345C189.83 186.224 189.589 186.158 189.349 186.144L184.931 185.984C184.89 185.984 184.864 185.957 184.864 185.917C184.864 185.877 184.904 185.851 184.931 185.851L189.349 186.011C189.603 186.024 189.87 186.091 190.083 186.224L193.795 188.427C193.848 188.454 193.928 188.52 193.981 188.641C194.062 188.814 194.008 188.974 193.981 189.014C193.981 189.028 193.955 189.054 193.941 189.054Z" fill="#F38484"/>
<path d="M184.998 189.495C184.931 189.495 184.877 189.482 184.837 189.469C184.717 189.442 184.61 189.402 184.504 189.375C184.397 189.349 184.29 189.309 184.17 189.282C183.956 189.202 183.876 188.975 183.97 188.708C184.063 188.454 184.29 188.227 184.53 188.307C184.797 188.374 184.918 188.414 185.185 188.521C185.225 188.534 185.238 188.574 185.225 188.614C185.211 188.654 185.171 188.668 185.131 188.654C184.877 188.548 184.771 188.508 184.504 188.441C184.343 188.387 184.17 188.574 184.103 188.761C184.05 188.908 184.05 189.095 184.223 189.162C184.343 189.188 184.45 189.228 184.557 189.255C184.664 189.282 184.771 189.322 184.891 189.349C184.944 189.362 185.011 189.389 185.078 189.362C185.238 189.322 185.291 189.135 185.291 189.135C185.305 189.095 185.345 189.082 185.371 189.095C185.411 189.108 185.425 189.148 185.411 189.175C185.411 189.188 185.331 189.429 185.104 189.482C185.064 189.482 185.038 189.495 184.998 189.495Z" fill="#F38484"/>
<path d="M193.474 188.909C193.461 188.909 193.447 188.909 193.434 188.895L192.807 188.521C192.767 188.481 192.606 188.335 192.647 188.121C192.66 188.014 192.713 187.947 192.753 187.894C192.78 187.867 192.82 187.867 192.847 187.894C192.873 187.921 192.873 187.961 192.847 187.987C192.82 188.014 192.78 188.068 192.78 188.134C192.753 188.281 192.873 188.401 192.887 188.415L193.514 188.788C193.541 188.802 193.554 188.842 193.541 188.882C193.514 188.895 193.501 188.909 193.474 188.909Z" fill="#F38484"/>
<path d="M194.782 188.455C194.769 188.455 194.756 188.455 194.756 188.441L194.008 188.068C193.981 188.041 193.861 187.921 193.875 187.721C193.888 187.587 193.968 187.494 194.008 187.454C194.035 187.427 194.075 187.427 194.102 187.454C194.128 187.48 194.128 187.52 194.102 187.547C194.075 187.574 194.021 187.627 194.008 187.721C193.995 187.841 194.075 187.921 194.088 187.948L194.809 188.308C194.836 188.321 194.849 188.361 194.836 188.401C194.836 188.441 194.809 188.455 194.782 188.455Z" fill="#F38484"/>
<path d="M171.1 179.216C169.138 176.226 167.096 172.728 165.147 168.723C162.864 164.024 161.208 159.606 159.994 155.721C159.206 153.825 158.218 151.369 157.15 148.459C155.028 142.639 154.307 139.688 154.04 138.594C154.04 138.594 153.239 135.19 153.065 130.704C153.012 129.396 153.025 128.021 153.693 126.486C153.853 126.112 154.44 124.844 155.735 123.709C156.336 123.175 157.124 122.481 158.405 122.187C159.566 121.92 160.501 122.134 160.715 122.187C161.035 122.267 162.597 122.694 164.092 124.87C165.48 126.899 165.867 129.049 166.228 134.188C166.468 137.539 166.495 139.435 166.588 141.264C166.708 143.893 167.002 147.698 167.736 152.384C168.551 155.801 169.472 158.484 170.139 160.273C171.554 164.078 172.582 165.8 174.224 170.139C175.239 172.835 175.933 175.078 176.36 176.506C175.826 176.947 175.185 177.414 174.411 177.855C173.156 178.562 172.008 178.976 171.1 179.216Z" fill="#5067BC"/>
<path d="M136.392 159.62C136.378 159.62 136.352 159.62 136.338 159.606C136.312 159.58 136.312 159.539 136.338 159.513C136.766 159.086 137.179 158.632 137.58 158.151C138.327 157.27 139.168 156.256 139.876 154.787C140.25 154.026 140.864 152.758 140.997 151.023C141.037 150.448 141.118 149.487 140.757 148.379C140.584 147.845 140.33 147.298 140.223 147.084C140.009 146.631 139.836 146.35 139.689 146.097C139.622 145.99 139.569 145.883 139.502 145.776C139.382 145.563 138.781 144.401 138.661 142.973C138.568 141.758 138.861 140.837 139.075 140.169C139.435 139.075 141.158 136.365 142.052 135.23C142.079 135.203 142.119 135.19 142.145 135.217C142.172 135.243 142.185 135.283 142.159 135.31C141.291 136.405 139.556 139.141 139.209 140.196C138.995 140.85 138.701 141.758 138.795 142.946C138.901 144.348 139.502 145.482 139.609 145.696C139.662 145.803 139.729 145.896 139.783 146.003C139.929 146.257 140.103 146.537 140.317 147.004C140.41 147.218 140.677 147.765 140.851 148.313C141.211 149.447 141.131 150.462 141.091 150.996C140.957 152.758 140.33 154.04 139.956 154.814C139.235 156.296 138.381 157.31 137.633 158.205C137.233 158.672 136.819 159.139 136.392 159.566C136.418 159.606 136.405 159.62 136.392 159.62Z" fill="#F9C973"/>
<path fill-rule="evenodd" clip-rule="evenodd" d="M24.6567 176.506C24.3897 176.786 24.056 177.2 23.7623 177.721C23.7623 177.721 23.7623 177.734 23.749 177.734C23.2951 178.562 23.5754 179.59 24.3764 180.097C24.6567 180.284 24.9771 180.471 25.3108 180.671C26.1118 181.151 28.6749 182.633 33.7611 184.262C39.2878 186.037 43.6931 186.678 45.1883 186.865C47.2307 187.132 49.0463 187.279 50.5548 187.346C51.4091 187.386 52.1834 186.838 52.4237 186.037C52.437 186.011 52.437 185.971 52.4504 185.944C52.704 185.036 52.6373 184.262 52.5705 183.795C48.6324 183.501 43.9201 182.86 38.7004 181.539C33.107 180.124 28.3946 178.268 24.6567 176.506Z" fill="#BF2652"/>
<path fill-rule="evenodd" clip-rule="evenodd" d="M46.4431 174.73C46.8303 174.37 47.5111 174.316 47.9783 174.944C49.2198 177.253 49.9541 178.081 50.5948 178.254C51.5293 178.495 52.3436 178.481 52.8509 178.428C53.0244 178.975 53.1713 179.683 53.2113 180.51C53.2647 182.046 52.8643 183.26 52.5572 183.995C51.5026 183.954 49.914 183.888 47.9783 183.701C43.8533 183.314 37.8461 182.7 31.1446 179.936C29.5293 179.269 27.2599 178.228 24.6567 176.626C24.6701 176.412 24.7368 176.025 25.0172 175.704C25.1373 175.571 25.4444 175.251 26.499 175.064C26.9262 174.997 27.2065 174.984 28.3412 175.01C29.4359 175.024 30.0099 175.037 30.8376 175.064C31.4116 175.09 31.8788 175.104 32.2126 175.117C32.5463 175.344 32.88 175.531 33.2271 175.691C38.0463 178.027 44.2939 175.905 46.4431 174.73Z" fill="#F95070"/>
<path fill-rule="evenodd" clip-rule="evenodd" d="M45.6691 171.406C45.8426 171.473 46.123 171.606 46.3766 171.873C46.7771 172.287 46.8706 172.741 46.9106 172.981C46.9373 173.142 47.0307 173.689 46.7905 174.263C46.697 174.477 46.4434 174.971 45.4155 175.545C41.0101 177.52 34.5089 177.213 32.3863 177.053C32.3997 176.759 32.3863 176.346 32.2662 175.892C32.1861 175.571 32.0392 175.331 31.9458 175.117C32.6533 175.157 33.6145 175.157 34.7092 175.091C37.032 174.944 38.8475 174.477 39.8888 174.17C42.3584 173.382 44.2807 172.314 45.6691 171.406Z" fill="#BF2652"/>
<path fill-rule="evenodd" clip-rule="evenodd" d="M32.039 175.091C32.1592 175.384 32.2793 175.718 32.3594 176.065C32.8 177.841 32.4128 179.402 32.0924 180.324C31.158 179.99 30.1835 179.589 29.1689 179.109C27.4201 178.294 25.8849 177.413 24.5767 176.559C24.59 176.385 24.6568 176.105 24.8437 175.825C25.1106 175.424 25.4711 175.264 25.698 175.171C26.192 174.957 26.6058 174.957 27.0864 174.957C28.5014 174.957 29.2089 174.957 29.1555 174.957C29.8097 174.997 30.7842 175.05 32.039 175.091Z" fill="#FC6C85"/>
<path d="M34.2293 178.574C34.5906 178.574 34.8834 178.388 34.8834 178.16C34.8834 177.931 34.5906 177.746 34.2293 177.746C33.8681 177.746 33.5752 177.931 33.5752 178.16C33.5752 178.388 33.8681 178.574 34.2293 178.574Z" fill="white"/>
<path d="M37.7132 178.641C38.0745 178.641 38.3673 178.456 38.3673 178.227C38.3673 177.999 38.0745 177.813 37.7132 177.813C37.3519 177.813 37.0591 177.999 37.0591 178.227C37.0591 178.456 37.3519 178.641 37.7132 178.641Z" fill="white"/>
<path d="M41.1502 178.445C41.5376 178.394 41.8248 178.15 41.7917 177.902C41.7586 177.653 41.4178 177.494 41.0305 177.545C40.6431 177.597 40.3559 177.84 40.389 178.089C40.422 178.337 40.7628 178.497 41.1502 178.445Z" fill="white"/>
<path d="M44.8033 177.626C45.215 177.51 45.4889 177.204 45.415 176.941C45.3412 176.678 44.9476 176.559 44.5359 176.675C44.1243 176.791 43.8504 177.098 43.9242 177.36C43.9981 177.623 44.3917 177.742 44.8033 177.626Z" fill="white"/>
<path fill-rule="evenodd" clip-rule="evenodd" d="M34.1892 178.202C34.1491 178.202 34.1224 178.175 34.1224 178.135C34.1224 177.521 34.029 176.92 33.8554 176.333C33.7353 175.919 33.5751 175.518 33.3749 175.145C33.3615 175.118 33.3749 175.078 33.4016 175.051C33.4283 175.038 33.4683 175.051 33.495 175.078C33.6953 175.465 33.8688 175.865 33.9889 176.293C34.1625 176.893 34.2559 177.507 34.2559 178.135C34.2559 178.175 34.2159 178.202 34.1892 178.202Z" fill="white"/>
<path fill-rule="evenodd" clip-rule="evenodd" d="M37.7533 178.323C37.7266 178.323 37.6866 178.296 37.6866 178.269C37.5931 177.495 37.3795 176.747 37.0725 176.04C36.8989 175.653 36.6853 175.279 36.4584 174.919C36.4317 174.892 36.4451 174.852 36.4718 174.825C36.4984 174.798 36.5385 174.812 36.5652 174.838C36.8055 175.199 37.0191 175.586 37.1926 175.973C37.513 176.694 37.7266 177.455 37.82 178.243C37.82 178.283 37.7934 178.323 37.7533 178.323Z" fill="white"/>
<path fill-rule="evenodd" clip-rule="evenodd" d="M41.0378 178.055C41.0111 178.055 40.9844 178.028 40.9711 178.001C40.7975 177.134 40.5172 176.293 40.1434 175.505C39.9432 175.078 39.7162 174.664 39.4626 174.264C39.4492 174.237 39.4492 174.197 39.4893 174.17C39.516 174.157 39.556 174.157 39.5827 174.197C39.8364 174.597 40.0633 175.024 40.2635 175.452C40.6373 176.253 40.9177 177.107 41.0912 177.988C41.1046 178.028 41.0779 178.055 41.0378 178.068C41.0378 178.055 41.0378 178.055 41.0378 178.055Z" fill="white"/>
<path fill-rule="evenodd" clip-rule="evenodd" d="M44.5886 177.227C44.5619 177.227 44.5352 177.214 44.5219 177.174C44.2949 176.373 43.9879 175.585 43.6141 174.851C43.307 174.251 42.9466 173.663 42.5595 173.116C42.5328 173.089 42.5461 173.049 42.5728 173.022C42.5995 172.996 42.6396 173.009 42.6663 173.036C43.0668 173.596 43.4272 174.184 43.7342 174.785C44.1214 175.532 44.4284 176.32 44.6553 177.134C44.6687 177.174 44.642 177.201 44.6153 177.214C44.6019 177.227 44.5886 177.227 44.5886 177.227Z" fill="white"/>
<path fill-rule="evenodd" clip-rule="evenodd" d="M44.2811 176.051C44.2678 176.051 44.2678 176.051 44.2544 176.051C44.2277 176.038 44.2144 176.011 44.2144 175.984C44.2678 175.303 44.4413 174.636 44.7083 174.008C44.9486 173.448 45.5894 171.966 47.1379 171.218C47.5517 171.018 48.5396 170.551 49.6343 170.898C50.6622 171.232 51.076 171.859 51.2362 172.313C51.61 173.408 50.9025 174.329 50.8758 174.369C50.2216 175.21 48.9534 175.477 47.8187 175.01C47.4049 174.903 46.9777 174.876 46.5639 174.93C45.4692 175.05 44.6949 175.664 44.3345 176.024C44.3212 176.038 44.2945 176.051 44.2811 176.051ZM48.8066 170.911C48.0991 170.911 47.4983 171.192 47.1913 171.339C45.6828 172.059 45.0554 173.515 44.8284 174.062C44.5881 174.623 44.4279 175.21 44.3612 175.824C44.775 175.45 45.5093 174.93 46.5372 174.823C46.9777 174.769 47.4182 174.809 47.8454 174.916C48.9401 175.357 50.1282 175.116 50.7556 174.316C50.769 174.302 51.4498 173.408 51.1027 172.38C50.9559 171.953 50.5687 171.365 49.5942 171.045C49.3139 170.938 49.0602 170.911 48.8066 170.911Z" fill="white"/>
<path fill-rule="evenodd" clip-rule="evenodd" d="M49.2604 177.333C49.1136 177.333 48.9534 177.32 48.7932 177.293C48.2458 177.213 47.9388 176.986 47.6051 176.732C47.3915 176.572 47.1645 176.412 46.8575 176.265C46.1366 175.918 45.2422 175.824 44.2276 175.998C44.2009 175.998 44.1742 175.998 44.1609 175.971C44.1475 175.945 44.1475 175.918 44.1609 175.904C44.2944 175.637 45.5893 173.301 47.8587 173.154C48.8199 173.088 49.6075 173.328 50.2082 173.835C50.4218 174.022 51.0092 174.516 51.0759 175.344C51.0893 175.504 51.116 176.318 50.5286 176.866C50.2216 177.173 49.781 177.333 49.2604 177.333ZM45.2155 175.784C45.8563 175.784 46.417 175.904 46.9242 176.145C47.2446 176.305 47.4849 176.479 47.6852 176.625C48.0189 176.866 48.2992 177.079 48.8065 177.159C49.5007 177.266 50.048 177.133 50.4352 176.772C50.9825 176.265 50.9558 175.504 50.9424 175.357C50.889 174.583 50.3284 174.116 50.1281 173.942C49.5541 173.448 48.7932 173.235 47.8721 173.288C45.8696 173.408 44.6548 175.304 44.3478 175.838C44.6548 175.798 44.9485 175.784 45.2155 175.784Z" fill="white"/>
<path fill-rule="evenodd" clip-rule="evenodd" d="M44.2408 175.957C44.2275 175.957 44.2275 175.957 44.2408 175.957C44.1874 175.944 44.1741 175.917 44.1741 175.877C44.3343 175.063 44.4144 173.835 43.867 172.54C43.0394 170.578 41.0103 169.163 38.8209 169.029C37.486 168.949 36.3913 169.363 35.7105 169.737C35.6838 169.75 35.6438 169.737 35.6171 169.71C35.6037 169.683 35.6171 169.643 35.6438 169.616C36.3513 169.243 37.4726 168.815 38.8343 168.896C41.077 169.029 43.1462 170.471 44.0005 172.487C44.5612 173.808 44.4811 175.076 44.3209 175.904C44.2942 175.931 44.2675 175.957 44.2408 175.957Z" fill="white"/>
<path fill-rule="evenodd" clip-rule="evenodd" d="M44.2409 176.038C44.2276 176.038 44.2142 176.038 44.2009 176.024C44.1742 175.998 44.1742 175.958 44.2009 175.931C44.8016 175.277 45.4824 174.476 45.7895 173.181C46.6839 169.39 43.4667 166.266 43.3198 166.146C43.2931 166.119 43.2931 166.079 43.3198 166.052C43.3465 166.026 43.3866 166.026 43.4133 166.052C43.5468 166.186 46.8307 169.35 45.923 173.221C45.6026 174.556 44.9218 175.37 44.3077 176.038C44.2676 176.024 44.2543 176.038 44.2409 176.038Z" fill="white"/>
<path fill-rule="evenodd" clip-rule="evenodd" d="M85.958 186.48C86.1048 186.8 86.2383 187.187 86.3184 187.654C86.3852 188.082 86.3985 188.482 86.3585 188.842C86.265 189.884 85.464 190.711 84.4495 190.832C72.9022 191.966 59.2189 189.47 56.2954 188.202C55.4677 187.961 54.5199 187.027 54.6133 186.119C54.7602 185.492 54.9604 184.971 55.1473 184.584L85.958 186.48Z" fill="#BF2652"/>
<path fill-rule="evenodd" clip-rule="evenodd" d="M73.022 179.497C73.4092 179.137 74.1434 178.843 74.8242 179.444C76.7465 180.859 77.0803 181.219 78.4019 181.606C79.5366 181.94 80.471 181.86 81.3254 181.78C83.0208 181.633 84.3424 181.112 85.1434 180.712C85.4371 181.232 85.7308 181.913 85.9443 182.754C86.3582 184.463 86.465 186.692 86.2781 187.52C82.3133 188.254 78.8424 188.161 76.306 188.254C64.999 188.348 61.1143 186.986 59.0451 186.479C57.2563 186.038 55.8145 185.571 54.8667 185.237C54.8934 184.97 54.9601 184.436 55.3072 183.902C55.7211 183.262 56.2684 182.981 56.5487 182.834C57.323 182.447 59.0718 182.474 60.3133 182.394C64.9856 183.502 72.3545 180.218 73.022 179.497Z" fill="#F95070"/>
<path fill-rule="evenodd" clip-rule="evenodd" d="M60.2998 182.394C61.2743 182.327 62.5292 182.154 63.9442 181.767C66 181.206 67.4818 180.432 68.1226 180.084C70.0983 178.99 71.5534 177.695 72.568 176.627C72.7549 176.787 73.0219 177.081 73.1954 177.521C73.5692 178.509 73.102 179.404 73.0219 179.564C72.1809 180.231 71.0328 181.046 69.5644 181.78C68.8301 182.154 67.2549 182.875 65.119 183.382C63.3034 183.809 61.6882 183.916 60.42 183.916C60.3532 183.408 60.3265 182.901 60.2998 182.394Z" fill="#BF2652"/>
<path fill-rule="evenodd" clip-rule="evenodd" d="M60.3133 182.381C60.3934 182.821 60.4468 183.302 60.4868 183.809C60.5669 184.944 60.5135 185.972 60.3934 186.826C59.3388 186.626 58.1774 186.346 56.9626 185.972C56.215 185.745 55.5208 185.491 54.8667 185.238C54.88 185.051 54.9067 184.757 55.0269 184.437C55.1203 184.263 55.3473 182.394 59.0718 182.434C59.4055 182.421 59.8194 182.408 60.3133 182.381Z" fill="#FC6C85"/>
<path d="M63.1732 185.004C63.562 184.966 63.8574 184.733 63.833 184.483C63.8085 184.234 63.4734 184.063 63.0845 184.101C62.6956 184.139 62.4002 184.372 62.4247 184.622C62.4492 184.871 62.7843 185.042 63.1732 185.004Z" fill="white"/>
<path d="M66.547 184.436C66.9262 184.341 67.1845 184.067 67.1239 183.824C67.0634 183.581 66.7069 183.46 66.3277 183.555C65.9485 183.649 65.6902 183.923 65.7508 184.166C65.8113 184.409 66.1678 184.53 66.547 184.436Z" fill="white"/>
<path d="M69.7111 183.461C70.0903 183.367 70.3486 183.093 70.288 182.85C70.2274 182.606 69.8709 182.486 69.4918 182.58C69.1126 182.674 68.8543 182.948 68.9148 183.191C68.9754 183.435 69.3319 183.555 69.7111 183.461Z" fill="white"/>
<path d="M72.7452 181.775C73.0987 181.608 73.2986 181.289 73.1918 181.062C73.0849 180.836 72.7118 180.787 72.3583 180.953C72.0048 181.12 71.8049 181.439 71.9117 181.665C72.0185 181.892 72.3917 181.941 72.7452 181.775Z" fill="white"/>
<path fill-rule="evenodd" clip-rule="evenodd" d="M63.0768 184.663C63.0501 184.663 63.01 184.636 63.01 184.609C62.9433 184.048 62.8231 183.501 62.663 182.967C62.5829 182.687 62.4761 182.406 62.3693 182.139C62.3559 182.099 62.3693 182.073 62.4093 182.046C62.4494 182.033 62.4761 182.046 62.5028 182.086C62.6096 182.353 62.7164 182.633 62.7964 182.914C62.9566 183.461 63.0768 184.022 63.1569 184.582C63.1569 184.636 63.1302 184.663 63.0768 184.663C63.0901 184.663 63.0901 184.663 63.0768 184.663Z" fill="white"/>
<path fill-rule="evenodd" clip-rule="evenodd" d="M66.2939 183.928C66.2672 183.928 66.2405 183.901 66.2271 183.875C66.1737 183.608 65.7599 182.233 65.2126 181.392C65.1992 181.365 65.1992 181.325 65.2393 181.298C65.2793 181.271 65.306 181.285 65.3327 181.325C65.8934 182.192 66.3072 183.567 66.3606 183.861C66.374 183.901 66.3473 183.928 66.3072 183.941C66.3072 183.928 66.3072 183.928 66.2939 183.928Z" fill="white"/>
<path fill-rule="evenodd" clip-rule="evenodd" d="M69.4583 183.154C69.4316 183.154 69.4049 183.14 69.3916 183.114C69.1379 182.526 68.8442 181.939 68.5105 181.391C68.2836 181.018 68.0433 180.657 67.7763 180.31C67.7496 180.283 67.7629 180.243 67.7896 180.217C67.8163 180.19 67.8564 180.203 67.8831 180.23C68.1501 180.577 68.3904 180.951 68.6173 181.325C68.951 181.885 69.2581 182.459 69.5117 183.06C69.5251 183.1 69.5117 183.127 69.4717 183.154H69.4583Z" fill="white"/>
<path fill-rule="evenodd" clip-rule="evenodd" d="M72.4214 181.485C72.3947 181.485 72.368 181.472 72.368 181.445C72.0877 180.911 71.7806 180.404 71.4202 179.923C71.0864 179.482 70.726 179.055 70.3389 178.668C70.3122 178.641 70.3122 178.601 70.3389 178.575C70.3656 178.548 70.4056 178.548 70.4323 178.575C70.8328 178.975 71.1932 179.402 71.527 179.843C71.8874 180.323 72.2078 180.844 72.4881 181.378C72.5015 181.405 72.4881 181.445 72.4614 181.472C72.4481 181.485 72.4347 181.485 72.4214 181.485Z" fill="white"/>
<path fill-rule="evenodd" clip-rule="evenodd" d="M71.8739 180.512C71.8605 180.512 71.8338 180.498 71.8205 180.485C71.7938 180.458 71.7938 180.432 71.8071 180.405C72.3411 179.377 73.0219 178.456 73.8229 177.682C74.5571 176.961 75.2513 176.28 76.386 176.026C76.8933 175.906 77.9345 175.666 78.7889 176.307C79.2828 176.68 79.8302 177.428 79.6967 178.322C79.5231 179.564 78.2015 180.044 78.1481 180.058C77.534 180.271 77.0535 180.151 76.4928 180.004C76.2124 179.938 75.9054 179.844 75.5316 179.804C74.3969 179.657 73.1688 179.884 71.8872 180.512C71.8872 180.512 71.8872 180.512 71.8739 180.512ZM77.4139 176.013C77.0134 176.013 76.6396 176.093 76.4127 176.146C75.318 176.4 74.6372 177.067 73.9163 177.775C73.1688 178.496 72.5413 179.35 72.0207 180.285C73.2622 179.711 74.4503 179.51 75.5583 179.657C75.9321 179.711 76.2525 179.791 76.5328 179.871C77.0935 180.018 77.534 180.138 78.1081 179.938C78.1615 179.924 79.4163 179.457 79.5765 178.309C79.6967 177.468 79.1894 176.76 78.7088 176.413C78.295 176.106 77.8411 176.013 77.4139 176.013Z" fill="white"/>
<path fill-rule="evenodd" clip-rule="evenodd" d="M71.9137 180.511C71.887 180.511 71.8603 180.498 71.8603 180.471C71.4731 179.75 71.1928 178.976 71.0593 178.188C70.8991 177.307 70.5654 175.452 71.6467 174.09C71.8069 173.89 72.3141 173.262 73.1952 173.049C73.4222 172.995 74.5836 172.769 75.4379 173.556C76.2122 174.277 76.1455 175.318 76.1188 175.519C76.0387 176.293 75.5981 176.773 74.5035 177.908C73.6624 178.776 72.8214 179.644 71.9671 180.485C71.9537 180.498 71.927 180.511 71.9137 180.511ZM73.8493 173.116C73.5423 173.116 73.3154 173.169 73.2219 173.182C72.3809 173.383 71.9003 173.983 71.7535 174.184C70.7122 175.492 71.0326 177.307 71.1928 178.175C71.3263 178.923 71.5799 179.657 71.9404 180.338C72.768 179.51 73.5957 178.669 74.41 177.828C75.5314 176.667 75.9185 176.239 75.9853 175.519C75.9986 175.332 76.0654 174.344 75.3445 173.663C74.8639 173.222 74.2899 173.116 73.8493 173.116Z" fill="white"/>
<path fill-rule="evenodd" clip-rule="evenodd" d="M71.9139 180.552C71.9139 180.552 71.9006 180.552 71.9139 180.552C71.8605 180.538 71.8472 180.512 71.8472 180.472C72.0474 179.457 71.9673 178.483 71.6336 177.628C70.619 175.065 67.5486 173.864 65.3192 174.344C64.7719 174.464 64.2379 174.678 63.744 174.998C63.7173 175.012 63.6773 175.012 63.6506 174.972C63.6372 174.945 63.6372 174.905 63.6773 174.878C64.1845 174.558 64.7319 174.331 65.2926 174.197C67.5753 173.703 70.7258 174.945 71.7671 177.561C72.1141 178.442 72.1942 179.444 71.994 180.485C71.9806 180.538 71.9406 180.552 71.9139 180.552Z" fill="white"/>
<path fill-rule="evenodd" clip-rule="evenodd" d="M71.914 180.472C71.9007 180.472 71.9007 180.472 71.8873 180.472C71.8473 180.459 71.8339 180.418 71.8473 180.378C72.2611 179.444 72.4613 178.483 72.4613 177.522C72.4613 174.224 70.0718 172.008 69.3375 171.408C69.3108 171.381 69.3108 171.341 69.3242 171.314C69.3509 171.287 69.3909 171.287 69.4176 171.301C70.1652 171.915 72.5948 174.171 72.5948 177.522C72.5948 178.509 72.3812 179.484 71.9674 180.432C71.9674 180.459 71.9407 180.472 71.914 180.472Z" fill="white"/>
<path fill-rule="evenodd" clip-rule="evenodd" d="M43.0656 83.3421C43.0256 83.3421 42.9855 83.3421 42.9455 83.3421C41.9176 83.2887 40.9831 82.5945 40.329 81.3797C39.6749 80.1916 39.3678 78.6297 39.4613 77.0011C39.6348 73.6103 41.4904 70.9404 43.5863 71.0605C44.3605 71.1006 45.0814 71.5144 45.6821 72.2353C45.7222 72.2887 45.7222 72.3821 45.6688 72.4222C45.6154 72.4756 45.5219 72.4622 45.4819 72.4088C44.9346 71.7414 44.2671 71.3676 43.5729 71.3275C41.6239 71.2341 39.8884 73.7838 39.7283 77.0144C39.6482 78.5897 39.9418 80.0982 40.5693 81.2462C41.1833 82.3809 42.0377 83.0217 42.9722 83.0751C43.9066 83.1285 44.8144 82.5678 45.5486 81.5132C45.5887 81.4465 45.6688 81.4331 45.7355 81.4732C45.8023 81.5132 45.8156 81.5933 45.7756 81.66C45.0013 82.7414 44.0535 83.3421 43.0656 83.3421Z" fill="#FC6C85"/>
<path fill-rule="evenodd" clip-rule="evenodd" d="M37.2585 77.0274C37.1784 77.0274 37.125 76.9606 37.125 76.8805C37.3653 72.1815 40.2488 68.4837 43.5461 68.6572C45.9624 68.7774 48.0182 70.94 48.7925 74.1706C48.8058 74.2373 48.7658 74.3174 48.699 74.3308C48.6323 74.3441 48.5522 74.3041 48.5388 74.2373C47.7913 71.1269 45.8289 69.0444 43.5328 68.9376C40.3823 68.7774 37.6189 72.355 37.392 76.9072C37.392 76.974 37.3252 77.0274 37.2585 77.0274Z" fill="#FC6C85"/>
<path fill-rule="evenodd" clip-rule="evenodd" d="M42.8926 85.7311C42.8259 85.7311 42.7458 85.7311 42.679 85.7311C40.4497 85.611 38.5006 83.7687 37.6196 80.8986C37.5929 80.8318 37.6329 80.7517 37.713 80.725C37.7798 80.6983 37.8599 80.7384 37.8866 80.8185C38.7409 83.5818 40.5965 85.3573 42.7057 85.4641C44.3077 85.5442 45.9096 84.6364 47.0844 82.9678C47.1244 82.901 47.2045 82.8877 47.2713 82.9411C47.338 82.9811 47.3514 83.0612 47.298 83.1279C46.0965 84.7833 44.5079 85.7311 42.8926 85.7311Z" fill="#FC6C85"/>
<path fill-rule="evenodd" clip-rule="evenodd" d="M60.0193 78.0953L57.2026 79.2567L55.6273 78.3356L55.614 75.7324L43.0654 76.0128V78.4157C43.0654 78.5892 43.1589 78.7628 43.3057 78.8562C44.0266 79.2967 46.1892 80.6317 47.5776 81.4727C47.6844 81.5395 47.8179 81.5528 47.9246 81.4994C48.512 81.2591 50.2875 80.5249 50.2875 80.5249C50.3943 80.4848 50.5145 80.4715 50.6212 80.4982L56.8955 82.247C57.0958 82.3004 57.296 82.287 57.4829 82.1936L59.6322 81.1123C59.8591 80.9921 60.006 80.7652 60.006 80.5115V78.0953H60.0193Z" fill="#BF2652"/>
<path fill-rule="evenodd" clip-rule="evenodd" d="M59.966 78.2021C59.1117 78.5759 58.2573 78.963 57.4163 79.3368C57.2828 79.3902 57.1493 79.4036 57.0158 79.3769C55.0401 78.9096 51.7027 78.1354 50.7282 77.9084C50.5413 77.8684 50.3544 77.8817 50.1675 77.9485C49.7003 78.122 48.7524 78.4958 48.0716 78.7628C47.8714 78.8429 47.6578 78.8162 47.4842 78.7094C46.6165 78.2021 44.0534 76.6669 43.1456 76.1196C43.0522 76.0662 43.0922 75.9193 43.199 75.9193L55.5473 75.6523C55.6541 75.6523 55.6808 75.7992 55.5874 75.8392L53.7051 76.5735C53.6384 76.6002 53.6384 76.707 53.7185 76.7203C54.6129 76.9205 57.8034 77.6281 59.9794 78.0286C60.0328 78.0553 60.0461 78.1754 59.966 78.2021Z" fill="#FC6C85"/>
<path fill-rule="evenodd" clip-rule="evenodd" d="M45.6151 77.615C44.654 77.041 43.6261 76.4269 43.1188 76.1332C43.0253 76.0799 43.0654 75.933 43.1722 75.933L55.5205 75.666C55.6273 75.666 55.654 75.8129 55.5605 75.8529L53.6782 76.5871C50.8215 77.1745 49.4465 75.7595 45.6151 77.615Z" fill="#F95070"/>
<path d="M130.518 87.9068C131.138 87.9068 131.64 87.4047 131.64 86.7854C131.64 86.1661 131.138 85.6641 130.518 85.6641C129.899 85.6641 129.397 86.1661 129.397 86.7854C129.397 87.4047 129.899 87.9068 130.518 87.9068Z" fill="#A2E9FC"/>
<path d="M120.386 93.7408C122.199 93.7408 123.67 92.2705 123.67 90.4568C123.67 88.6431 122.199 87.1729 120.386 87.1729C118.572 87.1729 117.102 88.6431 117.102 90.4568C117.102 92.2705 118.572 93.7408 120.386 93.7408Z" fill="#A2E9FC"/>
<path d="M5.79345 14.5781C7.31224 14.5781 8.54345 13.3469 8.54345 11.8281C8.54345 10.3093 7.31224 9.07812 5.79345 9.07812C4.27467 9.07812 3.04346 10.3093 3.04346 11.8281C3.04346 13.3469 4.27467 14.5781 5.79345 14.5781Z" fill="#A2E9FC"/>
<path d="M1.17476 2.34951C1.82356 2.34951 2.34951 1.82356 2.34951 1.17476C2.34951 0.525956 1.82356 0 1.17476 0C0.525956 0 0 0.525956 0 1.17476C0 1.82356 0.525956 2.34951 1.17476 2.34951Z" fill="#A2E9FC"/>
<path d="M195.477 220C197.836 220 199.749 218.087 199.749 215.728C199.749 213.369 197.836 211.456 195.477 211.456C193.118 211.456 191.205 213.369 191.205 215.728C191.205 218.087 193.118 220 195.477 220Z" fill="#A2E9FC"/>
<path d="M218.385 217.33C219.269 217.33 219.987 216.613 219.987 215.728C219.987 214.843 219.269 214.126 218.385 214.126C217.5 214.126 216.783 214.843 216.783 215.728C216.783 216.613 217.5 217.33 218.385 217.33Z" fill="#A2E9FC"/>
<path d="M206.397 212.271C207.429 212.271 208.266 211.434 208.266 210.402C208.266 209.37 207.429 208.533 206.397 208.533C205.365 208.533 204.528 209.37 204.528 210.402C204.528 211.434 205.365 212.271 206.397 212.271Z" fill="#A2E9FC"/>
<path d="M60.1261 16.7541C63.0383 16.7541 65.3991 14.3933 65.3991 11.4811C65.3991 8.56883 63.0383 6.20801 60.1261 6.20801C57.2139 6.20801 54.853 8.56883 54.853 11.4811C54.853 14.3933 57.2139 16.7541 60.1261 16.7541Z" fill="#A2E9FC"/>
<path d="M51.075 123.723C52.1072 123.723 52.9439 122.886 52.9439 121.854C52.9439 120.822 52.1072 119.985 51.075 119.985C50.0428 119.985 49.2061 120.822 49.2061 121.854C49.2061 122.886 50.0428 123.723 51.075 123.723Z" fill="#A2E9FC"/>
<path d="M25.4705 215.822C26.0898 215.822 26.5918 215.32 26.5918 214.7C26.5918 214.081 26.0898 213.579 25.4705 213.579C24.8512 213.579 24.3491 214.081 24.3491 214.7C24.3491 215.32 24.8512 215.822 25.4705 215.822Z" fill="#A2E9FC"/>
<path d="M15.512 216.262C17.3257 216.262 18.796 214.792 18.796 212.978C18.796 211.165 17.3257 209.694 15.512 209.694C13.6983 209.694 12.228 211.165 12.228 212.978C12.228 214.792 13.6983 216.262 15.512 216.262Z" fill="#A2E9FC"/>
<path d="M190.498 78.4832L181.313 85.5852L182.154 87.5075C182.181 87.6944 182.341 87.8546 182.568 87.8546L194.396 87.6009C194.69 87.6009 194.877 87.2939 194.77 87.0269L191.099 78.5633C190.965 78.2963 190.698 78.2696 190.498 78.4832Z" fill="#F9C973"/>
<path fill-rule="evenodd" clip-rule="evenodd" d="M189.63 76.6534L181.407 85.157C181.153 85.424 181.34 85.8512 181.714 85.8512L193.542 85.6376C193.835 85.6376 194.022 85.3306 193.916 85.0636L190.311 76.7735C190.191 76.5065 189.831 76.4531 189.63 76.6534Z" fill="#FFF9B0"/>
<path d="M155.803 55.0673L155.362 54.1729L150.156 56.9362L150.57 57.884C150.596 57.9241 150.623 57.9508 150.676 57.9775L155.415 59.9799C155.589 60.0466 155.736 59.9532 155.749 59.7663L155.816 55.1474C155.816 55.1207 155.816 55.0806 155.803 55.0673Z" fill="#F9C973"/>
<path fill-rule="evenodd" clip-rule="evenodd" d="M155.109 54.0928L150.236 56.6827C150.089 56.7627 150.103 56.963 150.249 57.0297L155.015 59.0055C155.135 59.0589 155.282 58.9654 155.282 58.8319L155.389 54.253C155.389 54.1329 155.242 54.0261 155.109 54.0928Z" fill="#FFF9B0"/>
<path d="M119.198 204.181C119.198 204.181 102.058 199.883 101.11 199.322C100.803 200.884 100.563 202.206 100.242 203.768C100.202 203.888 100.189 204.008 100.229 204.141L104.354 219.253C104.474 219.707 105.021 219.88 105.382 219.587L118.09 209.107C118.224 209.001 118.291 208.867 118.317 208.72C118.317 208.72 118.317 208.72 118.331 208.72C118.624 207.198 119.198 204.181 119.198 204.181Z" fill="#F9C973"/>
<path fill-rule="evenodd" clip-rule="evenodd" d="M101.11 199.697L105.235 214.808C105.355 215.262 105.903 215.436 106.263 215.142L118.972 204.663C119.372 204.329 119.239 203.688 118.731 203.541L101.898 198.922C101.417 198.775 100.977 199.216 101.11 199.697Z" fill="#FFF9B0"/>
<path d="M114.513 1.63056L113.058 0.12207L104.407 8.97279L105.849 10.6014H105.862C105.929 10.6548 106.023 10.6949 106.143 10.7082L117.036 11.6694C117.423 11.6827 117.543 11.3891 117.463 11.1221L114.606 1.77741C114.593 1.72401 114.553 1.67061 114.513 1.63056Z" fill="#F9C973"/>
<path fill-rule="evenodd" clip-rule="evenodd" d="M112.51 0.148L104.434 8.45139C104.193 8.69168 104.353 9.10552 104.687 9.13222L115.474 10.04C115.754 10.0667 115.981 9.79969 115.901 9.51935L113.191 0.308194C113.111 0.0145049 112.737 -0.0789416 112.51 0.148Z" fill="#FFF9B0"/>
<path d="M75.879 132.815L74.771 132.642L73.9834 139.223L75.1315 139.45C75.1849 139.45 75.2383 139.437 75.2783 139.41L80.1776 136.313C80.3378 136.193 80.3511 136.006 80.1909 135.872L75.9591 132.855C75.9458 132.815 75.9057 132.815 75.879 132.815Z" fill="#F9C973"/>
<path fill-rule="evenodd" clip-rule="evenodd" d="M74.5443 132.829L73.81 138.996C73.7833 139.183 73.9836 139.303 74.1438 139.21L79.0297 136.086C79.1632 136.006 79.1632 135.819 79.043 135.726L74.8913 132.695C74.7578 132.575 74.5576 132.668 74.5443 132.829Z" fill="#FFF9B0"/>
<path fill-rule="evenodd" clip-rule="evenodd" d="M210.255 12.5356L201.538 26.0586L203.527 28.1812C203.661 28.4081 203.941 28.555 204.235 28.4482L219.56 22.6545C219.934 22.5077 220.054 22.0271 219.774 21.7334L211.056 12.3754C210.789 12.0683 210.429 12.1618 210.255 12.5356Z" fill="#BF2652"/>
<path fill-rule="evenodd" clip-rule="evenodd" d="M208.279 10.5466L201.471 25.458C201.258 25.9119 201.712 26.4058 202.192 26.2189L217.544 20.4653C217.918 20.3185 218.038 19.8379 217.758 19.5442L209.214 10.3864C208.934 10.1061 208.453 10.1728 208.279 10.5466Z" fill="#F95070"/>
<path fill-rule="evenodd" clip-rule="evenodd" d="M176.641 63.4517L169.752 58.3789L168.551 59.3534C168.417 59.4202 168.337 59.5537 168.391 59.7139L170.954 68.044C171.021 68.2442 171.274 68.3243 171.434 68.1908L176.694 63.8789C176.868 63.7454 176.828 63.5585 176.641 63.4517Z" fill="#BF2652"/>
<path fill-rule="evenodd" clip-rule="evenodd" d="M177.762 62.4773L170.073 58.3657C169.833 58.2322 169.566 58.4592 169.646 58.7128L172.182 67.0562C172.249 67.2565 172.489 67.3366 172.663 67.2031L177.802 62.9846C177.976 62.8378 177.949 62.5708 177.762 62.4773Z" fill="#F95070"/>
<path fill-rule="evenodd" clip-rule="evenodd" d="M27.4472 151.423L29.1426 151.25L27.821 141.251L26.0589 141.358C25.9921 141.371 25.912 141.411 25.8453 141.478L19.7446 147.966C19.5443 148.206 19.6778 148.433 19.8781 148.513L27.3004 151.397C27.3538 151.437 27.4072 151.437 27.4472 151.423Z" fill="#BF2652"/>
<path fill-rule="evenodd" clip-rule="evenodd" d="M29.4097 150.903L28.1682 141.559C28.1282 141.278 27.7944 141.171 27.5942 141.372L21.5736 147.82C21.4134 147.993 21.4801 148.26 21.6937 148.354L28.9558 151.25C29.1961 151.344 29.4364 151.144 29.4097 150.903Z" fill="#F95070"/>
</svg>
